<?xml version="1.0" encoding="utf-8"?>
<!DOCTYPE svg PUBLIC "-//W3C//DTD SVG 1.1//EN" "http://www.w3.org/Graphics/SVG/1.1/DTD/svg11.dtd">
<svg version="1.1" baseProfile="full"
 xmlns="http://www.w3.org/2000/svg"
 xmlns:xlink="http://www.w3.org/1999/xlink"
 xmlns:ev="http://www.w3.org/2001/xml-events" 
  height="48px" 
  width="48px" 
>
<path fill="rgb( 0, 93, 156 )"
 d="M23.251,36.447 C23.251,36.447 23.25,36.447 23.25,36.447 C23.25,36.447 9.22799999999999,22.423 9.22799999999999,22.423 C9.22799999999999,22.423 15.618,16.033 15.618,16.033 C15.618,16.033 23.25,23.665 23.25,23.665 C23.25,23.665 40.402,6.51300000000001 40.402,6.51300000000001 C36.109,2.48400000000001 30.351,0 24,0 C10.743,0 0,10.743 0,24 C0,37.253 10.743,48 24,48 C37.253,48 48,37.253 48,24 C48,20.4 47.185,16.997 45.764,13.932 C45.764,13.932 23.251,36.447 23.251,36.447 Z "/>
</svg>
