<?xml version="1.0" encoding="utf-8"?>
<!DOCTYPE svg PUBLIC "-//W3C//DTD SVG 1.1//EN" "http://www.w3.org/Graphics/SVG/1.1/DTD/svg11.dtd">
<svg version="1.1" baseProfile="full"
 xmlns="http://www.w3.org/2000/svg"
 xmlns:xlink="http://www.w3.org/1999/xlink"
 xmlns:ev="http://www.w3.org/2001/xml-events" 
  height="29px" 
  width="23px" 
>
<path fill="rgb( 34, 60, 106 )"
 d="M18.649,8.75 C17.273,8.75 16.061,8.096 15.264,7.094 C15.264,7.094 7.882,12.209 7.882,12.209 C8.394,12.927 8.703,13.8 8.703,14.75 C8.703,15.481 8.507,16.16 8.192,16.766 C8.192,16.766 15.389,21.754 15.389,21.754 C16.187,20.839 17.344,20.25 18.649,20.25 C21.052,20.25 23,22.209 23,24.625 C23,27.041 21.052,29 18.649,29 C16.245,29 14.297,27.041 14.297,24.625 C14.297,23.824 14.527,23.083 14.901,22.437 C14.901,22.437 7.735,17.47 7.735,17.47 C6.937,18.471 5.726,19.125 4.351,19.125 C1.948,19.125 0,17.166 0,14.75 C0,12.334 1.948,10.375 4.351,10.375 C5.506,10.375 6.549,10.835 7.328,11.573 C7.328,11.573 14.807,6.39 14.807,6.39 C14.492,5.784 14.297,5.106 14.297,4.375 C14.297,1.959 16.245,0 18.649,0 C21.052,0 23,1.959 23,4.375 C23,6.791 21.052,8.75 18.649,8.75 Z "/>
</svg>
