<?xml version="1.0" encoding="utf-8"?>
<!DOCTYPE svg PUBLIC "-//W3C//DTD SVG 1.1//EN" "http://www.w3.org/Graphics/SVG/1.1/DTD/svg11.dtd">
<svg version="1.1" baseProfile="full"
 xmlns="http://www.w3.org/2000/svg"
 xmlns:xlink="http://www.w3.org/1999/xlink"
 xmlns:ev="http://www.w3.org/2001/xml-events" 
  height="44px" 
  width="30px" 
>
<path fill="rgb( 34, 60, 106 )"
 d="M29.971,17.126 C29.971,15.292 29.622,13.803 27.75,13.803 C27.75,13.803 27.737,13.803 27.737,13.803 C29.135,13.569 29.417,12.244 29.417,10.637 C29.417,8.866 29.08,7.429 27.272,7.429 C27.272,7.429 25.72,7.429 25.72,7.429 C26.945,7.09 27.2,5.80200000000001 27.2,4.258 C27.2,2.458 26.857,0.996 25.02,0.996 C25.02,0.996 9.348,0.996 9.348,0.996 C4.187,0.996 0.003,5.098 0.003,10.159 C0.003,10.159 0.003,19.938 0.003,19.938 C0.003,23.527 2.027,26.374 5.211,27.589 C7.688,29.186 12.678,32.989 13.741,38.274 C13.741,38.274 13.741,42.262 13.741,42.262 C13.741,42.262 20.71,43.004 20.71,36.579 C20.71,29.014 15.853,27.785 19.72,27.6 C19.72,27.6 25.489,27.6 25.489,27.6 C27.526,27.6 27.905,25.982 27.905,23.982 C27.905,22.247 27.619,20.799 26.209,20.448 C26.209,20.448 27.75,20.448 27.75,20.448 C29.622,20.448 29.971,18.961 29.971,17.126  "/>
</svg>
