<?xml version="1.0" encoding="utf-8"?>
<!DOCTYPE svg PUBLIC "-//W3C//DTD SVG 1.1//EN" "http://www.w3.org/Graphics/SVG/1.1/DTD/svg11.dtd">
<svg version="1.1" baseProfile="full"
 xmlns="http://www.w3.org/2000/svg"
 xmlns:xlink="http://www.w3.org/1999/xlink"
 xmlns:ev="http://www.w3.org/2001/xml-events" 
  height="66px" 
  width="34px" 
>
<path fill="rgb( 0, 93, 156 )"
 d="M23.811,31.557 C23.811,31.557 21.377,30.832 21.377,30.832 C21.083,29.576 20.53,28.482 19.693,27.518 C19.392,27.171 19.007,26.851 18.616,26.619 C17.541,25.904 16.334,25.569 15.02,25.612 C14.823,25.612 14.64,25.622 14.444,25.622 C14.444,25.622 14.421,25.481 14.421,25.481 C14.421,25.481 14.378,25.438 14.378,25.438 C14.378,25.438 14.39,25.395 14.39,25.395 C14.39,25.395 13.14,6.474 13.14,6.474 C12.898,2.21899999999999 7.87299999999999,2.73999999999999 7.87299999999999,6.288 C7.87299999999999,7.486 7.61500000000001,29.09 7.54400000000001,32.182 C7.524,33.036 7.76400000000001,33.393 7.03200000000001,33.723 C6.45400000000001,33.983 5.876,34.244 5.29900000000001,34.504 C2.75,35.655 0.38,36.328 0.001,39.506 C0.001,39.506 3.75,56.737 3.75,56.737 C4.446,57.748 5.52699999999999,58.568 6.22800000000001,59.477 C7.66800000000001,61.345 8.69900000000001,63.629 9.119,65.996 C9.119,65.996 29.852,65.996 29.852,65.996 C29.567,64.89 29.28,63.783 28.991,62.676 C28.681,61.481 28.178,60.587 28.888,59.478 C30.372,57.161 30.892,54.529 31.524,51.855 C32.183,49.062 33.989,45.192 32.541,42.467 C32.091,41.623 31.46,41.279 30.693,40.702 C29.06,39.472 28.948,36.677 27.778,35.012 C26.721,33.512 25.431,32.485 23.843,31.6 M14.417,4.291 C14.449,4.087 14.472,3.875 14.472,3.65000000000001 C14.472,2.651 14.074,1.783 13.288,1.065 C12.492,0.357 11.556,0.002 10.437,0.002 C9.31800000000001,0.002 8.37200000000001,0.357 7.57499999999999,1.065 C6.78999999999999,1.783 6.40199999999999,2.651 6.40199999999999,3.65000000000001 C6.40199999999999,3.875 6.41300000000001,4.087 6.45599999999999,4.291 C6.595,3.54000000000001 6.96199999999999,2.898 7.57499999999999,2.339 C8.37200000000001,1.621 9.31800000000001,1.268 10.437,1.268 C11.556,1.268 12.503,1.621 13.288,2.339 C13.913,2.898 14.278,3.54000000000001 14.417,4.291  "/>
</svg>
