<?xml version="1.0" encoding="utf-8"?>
<!DOCTYPE svg PUBLIC "-//W3C//DTD SVG 1.1//EN" "http://www.w3.org/Graphics/SVG/1.1/DTD/svg11.dtd">
<svg version="1.1" baseProfile="full"
 xmlns="http://www.w3.org/2000/svg"
 xmlns:xlink="http://www.w3.org/1999/xlink"
 xmlns:ev="http://www.w3.org/2001/xml-events" 
  height="175px" 
  width="125px" 
>
<path stroke="rgb( 34, 60, 106 )" stroke-width="6.25px" stroke-linecap="round" stroke-linejoin="round" fill="none"
 d="M124.998,67.1949999999999 C124.998,59.5550000000001 123.544,53.3530000000001 115.735,53.3530000000001 C115.735,53.3530000000001 115.678,53.3530000000001 115.678,53.3530000000001 C121.511,52.376 122.689,46.8579999999999 122.689,40.164 C122.689,32.7860000000001 121.283,26.799 113.74,26.799 C113.74,26.799 107.271,26.799 107.271,26.799 C112.379,25.386 113.442,20.021 113.442,13.588 C113.442,6.08999999999992 112.012,0 104.346,0 C104.346,0 38.98,0 38.98,0 C17.452,0 0,17.088 0,38.172 C0,38.172 0,78.9100000000001 0,78.9100000000001 C0,93.8630000000001 8.44200000000001,105.722 21.723,110.783 C32.0550000000001,117.434 52.8699999999999,133.276 57.3040000000001,155.293 C57.3040000000001,155.293 57.3040000000001,171.908 57.3040000000001,171.908 C57.3040000000001,171.908 86.3710000000001,175 86.3710000000001,148.235 C86.3710000000001,116.718 66.114,111.601 82.2449999999999,110.827 C82.2449999999999,110.827 106.302,110.827 106.302,110.827 C114.799,110.827 116.379,104.09 116.379,95.758 C116.379,88.529 115.189,82.4960000000001 109.308,81.0340000000001 C109.308,81.0340000000001 115.735,81.0340000000001 115.735,81.0340000000001 C123.544,81.0340000000001 124.998,74.8389999999999 124.998,67.1949999999999  "/>
</svg>
