<?xml version="1.0" encoding="utf-8"?>
<!-- Generator: Adobe Illustrator 15.0.0, SVG Export Plug-In . SVG Version: 6.00 Build 0)  -->
<!DOCTYPE svg PUBLIC "-//W3C//DTD SVG 1.1//EN" "http://www.w3.org/Graphics/SVG/1.1/DTD/svg11.dtd">
<svg version="1.1" id="图层_1" xmlns:ev="http://www.w3.org/2001/xml-events"
	 xmlns="http://www.w3.org/2000/svg" xmlns:xlink="http://www.w3.org/1999/xlink" x="0px" y="0px" width="44px" height="43px"
	 viewBox="0 0 44 43" enable-background="new 0 0 44 43" xml:space="preserve">
<path fill="#666666" d="M29.755,5.864c0.371,1.466,0.407,1.588,0.373,3.094c-0.015,0.581-0.353,3.264-0.261,4.087
	c0.076,0.679,0.248,0.733,0.521,1.292c0.473,0.974,0.314,2.316,0.133,3.298c-0.101,0.537-0.311,1.301-0.631,1.74
	c-0.353,0.483-1.059,0.486-1.369,1.05c-0.451,0.812-0.196,1.952-0.48,2.829c-0.322,0.994-1.143,1.063-1.203,2.365
	c0.402,0.055,0.803,0.111,1.203,0.168c0.402,0.84,1.141,2.531,1.893,3.04c0.629,0.17,1.26,0.339,1.89,0.508
	c2.21,0.89,4.663,1.954,6.877,2.871c2.017,0.837,4.429,1.135,5.157,3.211c0,1.41,0.137,4.741,0.1,6.59H0.048
	c-0.037-1.849,0.097-5.18,0.097-6.59c0.729-2.076,3.143-2.374,5.158-3.211c2.214-0.917,4.669-1.981,6.877-2.871
	c0.63-0.169,1.261-0.338,1.892-0.508c0.752-0.509,1.489-2.2,1.89-3.04l0.895-0.213c-0.202-1.111-0.903-1.198-1.194-1.983
	c-0.114-1.183-0.228-2.366-0.343-3.548c0.004,0.055-0.823-0.149-0.932-0.216c-1.167-0.719-1.191-3.639-1.303-4.852
	c-0.051-0.556,0.734-1.01,0.515-2.028c-1.279-5.959,0.554-8.748,3.451-9.673c2.011-0.801,5.77-2.286,9.272-0.168l0.868,0.791
	L28.6,4.136C29.305,4.537,29.755,5.864,29.755,5.864"/>
</svg>
