<?xml version="1.0" encoding="utf-8"?>
<!DOCTYPE svg PUBLIC "-//W3C//DTD SVG 1.1//EN" "http://www.w3.org/Graphics/SVG/1.1/DTD/svg11.dtd">
<svg version="1.1" baseProfile="full"
 xmlns="http://www.w3.org/2000/svg"
 xmlns:xlink="http://www.w3.org/1999/xlink"
 xmlns:ev="http://www.w3.org/2001/xml-events" 
  height="53px" 
  width="53px" 
>
<path fill="rgb( 102, 102, 102 )"
 d="M43.561,9.43100000000001 C34.137,0.005 18.856,0.005 9.42699999999999,9.43100000000001 C0.005,18.855 0.001,34.142 9.42699999999999,43.567 C18.853,52.993 34.141,52.99 43.561,43.567 C52.99,34.14 52.987,18.856 43.561,9.43100000000001 M40.312,35.513 C40.312,35.513 35.508,40.321 35.508,40.321 C35.508,40.321 26.632,31.445 26.632,31.445 C26.632,31.445 17.758,40.321 17.758,40.321 C17.758,40.321 12.95,35.513 12.95,35.513 C12.95,35.513 21.826,26.638 21.826,26.638 C21.826,26.638 12.95,17.764 12.95,17.764 C12.95,17.764 17.758,12.959 17.758,12.959 C17.758,12.959 26.632,21.83 26.632,21.83 C26.632,21.83 35.508,12.959 35.508,12.959 C35.508,12.959 40.312,17.764 40.312,17.764 C40.312,17.764 31.44,26.638 31.44,26.638 C31.44,26.638 40.312,35.513 40.312,35.513 Z "/>
</svg>
