<?xml version="1.0" encoding="utf-8"?>
<!-- Generator: Adobe Illustrator 15.0.0, SVG Export Plug-In . SVG Version: 6.00 Build 0)  -->
<!DOCTYPE svg PUBLIC "-//W3C//DTD SVG 1.1//EN" "http://www.w3.org/Graphics/SVG/1.1/DTD/svg11.dtd">
<svg version="1.1" id="图层_1" xmlns:ev="http://www.w3.org/2001/xml-events"
	 xmlns="http://www.w3.org/2000/svg" xmlns:xlink="http://www.w3.org/1999/xlink" x="0px" y="0px" width="145px" height="119px"
	 viewBox="0 0 145 119" enable-background="new 0 0 145 119" xml:space="preserve">
<path fill="#1F3967" d="M44.726,0.779c2.184-0.252,4.41-0.386,6.669-0.395h0.518c2.261,0.01,4.497,0.143,6.695,0.395
	c0.889,0.102,1.771,0.224,2.647,0.364c0.692,0.11,1.379,0.231,2.063,0.365c0.58,0.113,1.157,0.234,1.73,0.364
	c0.511,0.116,1.021,0.237,1.526,0.365c0.458,0.116,0.912,0.238,1.365,0.365c0.421,0.117,0.839,0.238,1.255,0.364
	c0.389,0.118,0.777,0.239,1.162,0.365c0.364,0.118,0.725,0.24,1.085,0.364c0.341,0.119,0.681,0.24,1.019,0.365
	c0.323,0.118,0.644,0.24,0.965,0.364c0.306,0.119,0.611,0.241,0.915,0.365c0.293,0.119,0.584,0.241,0.873,0.365
	c0.281,0.119,0.561,0.24,0.837,0.364c0.269,0.12,0.537,0.241,0.804,0.364c0.258,0.12,0.513,0.242,0.767,0.365
	c0.248,0.12,0.493,0.242,0.737,0.365c0.24,0.12,0.479,0.241,0.716,0.364c0.231,0.121,0.464,0.241,0.692,0.365
	c0.225,0.12,0.445,0.242,0.666,0.364c0.215,0.121,0.43,0.243,0.645,0.365c0.21,0.121,0.42,0.242,0.629,0.364
	c0.203,0.121,0.404,0.242,0.607,0.365c0.196,0.121,0.393,0.243,0.588,0.365c0.192,0.121,0.386,0.242,0.576,0.365
	c0.188,0.12,0.373,0.242,0.557,0.364c0.182,0.12,0.361,0.242,0.543,0.365c0.177,0.121,0.355,0.241,0.531,0.364
	c0.172,0.12,0.343,0.243,0.512,0.365c0.169,0.121,0.338,0.242,0.505,0.365c0.164,0.12,0.327,0.241,0.489,0.364
	c0.16,0.12,0.318,0.242,0.478,0.365c0.157,0.121,0.313,0.242,0.47,0.364c0.151,0.12,0.301,0.243,0.453,0.365
	c0.149,0.121,0.301,0.241,0.448,0.364c0.146,0.12,0.288,0.243,0.431,0.365c0.144,0.121,0.287,0.242,0.428,0.365
	c0.139,0.12,0.277,0.242,0.414,0.364c0.136,0.121,0.272,0.242,0.406,0.365c0.135,0.12,0.266,0.242,0.397,0.364
	c0.13,0.121,0.26,0.243,0.389,0.365c0.128,0.121,0.253,0.242,0.38,0.364c0.125,0.122,0.248,0.243,0.371,0.365
	c0.122,0.121,0.243,0.243,0.364,0.364c0.119,0.122,0.237,0.243,0.354,0.365c0.117,0.121,0.233,0.242,0.349,0.365
	c0.114,0.121,0.228,0.242,0.341,0.364c0.112,0.121,0.225,0.243,0.334,0.365c0.109,0.121,0.219,0.242,0.327,0.365
	c0.106,0.121,0.213,0.243,0.319,0.364c0.104,0.121,0.209,0.243,0.313,0.365c0.102,0.12,0.203,0.243,0.305,0.364
	c0.101,0.122,0.201,0.242,0.301,0.365c0.099,0.121,0.195,0.243,0.291,0.365c0.098,0.121,0.195,0.242,0.291,0.364
	c0.093,0.121,0.185,0.243,0.276,0.365c0.093,0.122,0.187,0.242,0.278,0.364c0.09,0.121,0.177,0.243,0.266,0.365
	c0.088,0.121,0.178,0.242,0.264,0.364c0.086,0.121,0.172,0.243,0.257,0.365c0.084,0.121,0.168,0.243,0.251,0.364
	s0.165,0.243,0.246,0.365c0.082,0.121,0.16,0.243,0.238,0.365c0.08,0.121,0.16,0.242,0.238,0.364
	c0.077,0.121,0.151,0.243,0.227,0.365c0.076,0.121,0.152,0.242,0.227,0.365c0.074,0.12,0.146,0.242,0.218,0.364
	c0.072,0.121,0.144,0.242,0.214,0.365c0.07,0.121,0.141,0.243,0.211,0.364c0.067,0.121,0.135,0.243,0.201,0.365
	c0.068,0.121,0.137,0.242,0.202,0.365c0.065,0.12,0.127,0.242,0.19,0.364c0.064,0.121,0.13,0.243,0.193,0.365
	c0.061,0.121,0.121,0.243,0.182,0.365c0.062,0.12,0.121,0.242,0.181,0.364c0.06,0.121,0.118,0.243,0.176,0.365
	c0.058,0.12,0.113,0.242,0.169,0.364c0.057,0.121,0.114,0.243,0.17,0.365c0.055,0.121,0.105,0.243,0.158,0.364
	c0.053,0.121,0.105,0.243,0.158,0.365c0.052,0.121,0.104,0.242,0.152,0.364c0.051,0.121,0.099,0.243,0.147,0.365
	c0.05,0.122,0.099,0.243,0.146,0.364c0.049,0.121,0.093,0.244,0.139,0.365c0.045,0.122,0.091,0.243,0.135,0.364
	c0.045,0.122,0.09,0.243,0.133,0.365c0.043,0.121,0.082,0.244,0.125,0.364c0.041,0.122,0.084,0.243,0.125,0.365
	c0.041,0.121,0.078,0.243,0.116,0.365c0.039,0.121,0.077,0.243,0.115,0.365c0.037,0.121,0.076,0.242,0.112,0.364
	c0.035,0.121,0.068,0.243,0.104,0.365c0.035,0.121,0.071,0.243,0.104,0.364c0.033,0.122,0.065,0.243,0.098,0.365
	c0.031,0.121,0.063,0.243,0.094,0.365c0.031,0.121,0.064,0.242,0.094,0.364c0.028,0.121,0.056,0.243,0.084,0.365
	c0.026,0.121,0.056,0.243,0.082,0.364c0.018,0.079,0.037,0.158,0.053,0.237v0.002c-0.92-0.103-1.846-0.186-2.777-0.239
	c-0.708-0.04-1.419-0.062-2.133-0.062c-0.813,0-1.618,0.022-2.418,0.062c-1.33,0.068-2.645,0.19-3.938,0.365
	c-0.767,0.104-1.527,0.225-2.281,0.365c-0.59,0.11-1.178,0.232-1.76,0.364c-0.504,0.114-1.005,0.234-1.5,0.365
	c-0.438,0.114-0.875,0.237-1.306,0.364c-0.394,0.116-0.786,0.238-1.175,0.365c-0.361,0.117-0.721,0.239-1.077,0.364
	c-0.334,0.118-0.665,0.24-0.996,0.365c-0.312,0.118-0.621,0.24-0.929,0.364c-0.293,0.119-0.584,0.24-0.873,0.365
	c-0.277,0.119-0.553,0.24-0.827,0.365c-0.263,0.119-0.524,0.24-0.784,0.364c-0.249,0.119-0.494,0.242-0.74,0.364
	c-0.238,0.12-0.474,0.242-0.709,0.365c-0.229,0.12-0.455,0.242-0.681,0.365c-0.22,0.121-0.44,0.241-0.658,0.365
	c-0.209,0.119-0.415,0.242-0.622,0.364c-0.203,0.12-0.404,0.242-0.604,0.365c-0.195,0.12-0.392,0.241-0.587,0.364
	c-0.188,0.12-0.375,0.243-0.562,0.365c-0.182,0.12-0.363,0.242-0.543,0.365c-0.178,0.121-0.356,0.241-0.532,0.364
	c-0.17,0.12-0.339,0.243-0.507,0.365c-0.167,0.121-0.332,0.242-0.497,0.364c-0.161,0.121-0.323,0.242-0.483,0.365
	c-0.156,0.12-0.31,0.242-0.464,0.365c-0.154,0.121-0.308,0.241-0.459,0.364c-0.148,0.12-0.292,0.243-0.438,0.365
	c-0.145,0.12-0.29,0.241-0.432,0.364c-0.141,0.121-0.279,0.243-0.417,0.365c-0.137,0.121-0.274,0.242-0.409,0.364
	c-0.133,0.121-0.266,0.243-0.397,0.365c-0.13,0.121-0.259,0.243-0.387,0.364c-0.127,0.121-0.254,0.243-0.379,0.365
	c-0.124,0.121-0.245,0.243-0.367,0.365c-0.121,0.121-0.242,0.242-0.361,0.364c-0.118,0.121-0.233,0.243-0.349,0.365
	c-0.116,0.121-0.231,0.242-0.344,0.365c-0.112,0.12-0.222,0.242-0.332,0.364c-0.11,0.121-0.22,0.242-0.328,0.365
	c-0.107,0.12-0.212,0.242-0.317,0.364c-0.105,0.122-0.209,0.242-0.312,0.365c-0.102,0.12-0.203,0.242-0.304,0.365
	c-0.099,0.121-0.198,0.242-0.297,0.364c-0.097,0.121-0.194,0.243-0.29,0.365c-0.095,0.121-0.188,0.242-0.282,0.364
	c-0.093,0.121-0.186,0.242-0.278,0.365c-0.091,0.121-0.179,0.243-0.269,0.364c-0.088,0.122-0.179,0.242-0.266,0.365
	c-0.086,0.12-0.17,0.243-0.255,0.364c-0.085,0.122-0.171,0.243-0.255,0.365c-0.082,0.121-0.162,0.243-0.243,0.365
	c-0.081,0.121-0.162,0.242-0.241,0.364c-0.079,0.121-0.157,0.243-0.234,0.365c-0.077,0.121-0.153,0.243-0.229,0.364
	c-0.075,0.122-0.151,0.243-0.225,0.365c-0.073,0.121-0.144,0.243-0.216,0.365c-0.072,0.121-0.145,0.242-0.216,0.364
	c-0.07,0.121-0.136,0.244-0.205,0.365c-0.068,0.121-0.137,0.242-0.204,0.364c-0.066,0.121-0.132,0.243-0.197,0.365
	c-0.065,0.121-0.128,0.243-0.192,0.365c-0.063,0.121-0.128,0.242-0.191,0.365c-0.061,0.12-0.119,0.242-0.179,0.364
	c-0.061,0.121-0.122,0.243-0.181,0.364c-0.058,0.122-0.115,0.243-0.172,0.364c-0.058,0.122-0.114,0.242-0.169,0.365
	c-0.056,0.123-0.113,0.242-0.167,0.365c-0.054,0.119-0.105,0.244-0.157,0.364c-0.053,0.122-0.107,0.243-0.158,0.364
	c-0.051,0.122-0.101,0.242-0.15,0.365c-0.05,0.121-0.099,0.242-0.147,0.363c-0.048,0.121-0.098,0.244-0.145,0.364
	c-0.047,0.122-0.09,0.243-0.136,0.367c-0.045,0.121-0.092,0.239-0.136,0.364c-0.044,0.121-0.087,0.242-0.13,0.363
	c-0.042,0.123-0.083,0.244-0.125,0.364c-0.041,0.122-0.085,0.243-0.125,0.365c-0.04,0.121-0.076,0.241-0.115,0.364
	c-0.039,0.121-0.077,0.242-0.115,0.365c-0.037,0.123-0.075,0.242-0.111,0.364c-0.035,0.12-0.069,0.243-0.104,0.365
	c-0.035,0.121-0.071,0.243-0.104,0.364s-0.065,0.242-0.097,0.363c-0.032,0.123-0.064,0.244-0.094,0.364
	c-0.031,0.122-0.064,0.243-0.094,0.367c-0.03,0.119-0.055,0.243-0.084,0.364c-0.028,0.121-0.057,0.242-0.084,0.363
	c-0.027,0.123-0.055,0.244-0.08,0.365c-0.026,0.121-0.05,0.242-0.074,0.364c-0.025,0.121-0.051,0.243-0.074,0.364
	s-0.046,0.242-0.068,0.363c-0.022,0.123-0.043,0.246-0.063,0.367c-0.021,0.121-0.045,0.241-0.064,0.364
	c-0.02,0.121-0.037,0.243-0.056,0.364c-0.018,0.121-0.036,0.242-0.054,0.363c-0.018,0.123-0.037,0.244-0.053,0.365
	s-0.029,0.243-0.044,0.364s-0.03,0.243-0.044,0.366c-0.014,0.121-0.029,0.242-0.042,0.365c-0.012,0.121-0.022,0.242-0.033,0.363
	c-0.012,0.121-0.024,0.243-0.035,0.364c-0.01,0.122-0.02,0.243-0.029,0.364c-0.01,0.121-0.017,0.242-0.025,0.365
	c-0.008,0.121-0.017,0.242-0.024,0.363s-0.013,0.245-0.018,0.366c-0.006,0.12-0.01,0.243-0.015,0.364
	c-0.005,0.121-0.011,0.242-0.015,0.365c-0.003,0.121-0.005,0.242-0.006,0.363c-0.003,0.121-0.004,0.243-0.006,0.364
	c-0.001,0.122-0.005,0.243-0.005,0.366v0.037c0,0.107,0,0.218,0.002,0.328c0,0.121,0.002,0.242,0.005,0.363
	c0.002,0.122,0.005,0.243,0.008,0.364c0.004,0.122,0.008,0.243,0.013,0.364s0.01,0.242,0.016,0.365
	c0.006,0.121,0.013,0.242,0.02,0.363c0.007,0.124,0.015,0.245,0.023,0.366c0.009,0.122,0.018,0.243,0.028,0.364
	c0.01,0.121,0.019,0.244,0.03,0.365c0.011,0.121,0.022,0.242,0.035,0.363c0.012,0.122,0.024,0.243,0.038,0.365
	c0.013,0.121,0.027,0.242,0.041,0.363c0.015,0.121,0.03,0.246,0.045,0.365c0.016,0.123,0.032,0.244,0.05,0.365
	c0.017,0.122,0.034,0.243,0.052,0.365c0.018,0.121,0.037,0.242,0.056,0.363s0.039,0.244,0.06,0.365
	c0.02,0.121,0.041,0.242,0.063,0.363c0.021,0.122,0.044,0.243,0.067,0.365c0.023,0.123,0.046,0.244,0.07,0.363
	c0.024,0.123,0.049,0.246,0.074,0.367s0.051,0.242,0.077,0.365c0.027,0.12,0.054,0.241,0.081,0.363
	c0.028,0.121,0.056,0.242,0.085,0.363c0.029,0.121,0.058,0.244,0.088,0.365c0.03,0.121,0.061,0.242,0.092,0.364
	c0.031,0.123,0.063,0.244,0.095,0.366c0.033,0.121,0.065,0.243,0.099,0.363c0.033,0.123,0.068,0.244,0.102,0.365l0.06,0.207
	c-0.858,0.067-1.719,0.121-2.585,0.157c-0.723,0.029-1.449,0.048-2.178,0.048c-0.707,0-1.398-0.017-2.077-0.048
	c-1.432-0.065-2.81-0.19-4.167-0.364c-0.829-0.105-1.649-0.229-2.469-0.365c-0.682-0.113-1.363-0.234-2.048-0.363
	c-0.618-0.118-1.238-0.238-1.866-0.366c-0.589-0.118-1.184-0.239-1.786-0.364c-0.583-0.119-1.173-0.242-1.772-0.365
	c-0.553-0.112-1.115-0.227-1.686-0.34l-0.675,0.34l-0.724,0.365l-0.724,0.364l-0.723,0.366l-0.724,0.363l-0.723,0.365l-0.724,0.364
	l-0.724,0.364l-0.723,0.363l-0.724,0.367l-0.723,0.365l-0.725,0.363l-0.723,0.363l-0.723,0.365l-0.724,0.364l-0.724,0.366
	l-0.724,0.363l-0.723,0.365l-0.724,0.364l-0.723,0.364l-0.724,0.363l-0.724,0.365l-0.724,0.367l-0.723,0.363l-0.515,0.259
	l0.085-0.259l0.121-0.363l0.121-0.367l0.121-0.365l0.12-0.363l0.121-0.364l0.121-0.364l0.12-0.365l0.121-0.363l0.12-0.366
	l0.121-0.364l0.121-0.365l0.12-0.363l0.121-0.363l0.12-0.365l0.121-0.367l0.121-0.363l0.12-0.364l0.121-0.364l0.121-0.365
	l0.12-0.363l0.121-0.366l0.121-0.364l0.12-0.365l0.121-0.363l0.121-0.363l0.12-0.365l0.121-0.367l0.12-0.363l0.121-0.365
	l0.121-0.363l0.12-0.365l0.121-0.363l0.121-0.365l0.12-0.365l0.121-0.365l0.121-0.363l0.12-0.365l0.121-0.363l0.121-0.365
	l0.12-0.364l0.121-0.366l0.07-0.211c-0.072-0.051-0.142-0.102-0.213-0.152c-0.172-0.123-0.343-0.244-0.512-0.365
	c-0.168-0.121-0.335-0.242-0.501-0.364c-0.165-0.121-0.329-0.242-0.492-0.364c-0.161-0.121-0.322-0.242-0.482-0.363
	c-0.158-0.123-0.316-0.244-0.473-0.365c-0.156-0.121-0.31-0.242-0.465-0.366c-0.152-0.121-0.305-0.243-0.456-0.364
	c-0.15-0.121-0.3-0.242-0.448-0.363c-0.148-0.123-0.294-0.244-0.44-0.365c-0.144-0.121-0.288-0.242-0.431-0.364
	c-0.142-0.121-0.282-0.243-0.423-0.366c-0.139-0.119-0.277-0.242-0.415-0.363c-0.137-0.123-0.273-0.244-0.408-0.365
	c-0.134-0.121-0.268-0.242-0.4-0.364c-0.131-0.121-0.261-0.243-0.392-0.364c-0.129-0.121-0.257-0.242-0.384-0.363
	c-0.127-0.123-0.253-0.244-0.379-0.365c-0.123-0.121-0.248-0.243-0.37-0.366c-0.122-0.119-0.242-0.243-0.362-0.364
	c-0.12-0.121-0.239-0.242-0.357-0.365c-0.117-0.121-0.233-0.242-0.349-0.363c-0.115-0.121-0.23-0.243-0.344-0.364
	c-0.113-0.121-0.223-0.243-0.334-0.364s-0.22-0.242-0.329-0.367c-0.108-0.121-0.217-0.24-0.323-0.363
	c-0.106-0.121-0.212-0.243-0.317-0.364c-0.104-0.122-0.207-0.243-0.309-0.364c-0.102-0.121-0.203-0.242-0.303-0.365
	c-0.1-0.121-0.2-0.242-0.299-0.363c-0.098-0.121-0.194-0.243-0.291-0.364c-0.095-0.122-0.19-0.243-0.284-0.367
	c-0.094-0.12-0.187-0.241-0.279-0.364c-0.092-0.121-0.185-0.242-0.275-0.363c-0.089-0.121-0.178-0.243-0.266-0.364
	c-0.088-0.122-0.175-0.243-0.262-0.365c-0.086-0.12-0.172-0.241-0.257-0.364c-0.084-0.121-0.166-0.242-0.249-0.365
	C7.081,64.825,7,64.702,6.92,64.581c-0.081-0.122-0.162-0.243-0.241-0.365c-0.078-0.12-0.156-0.241-0.233-0.364
	c-0.077-0.121-0.153-0.242-0.228-0.363c-0.075-0.122-0.15-0.243-0.224-0.364c-0.073-0.122-0.146-0.243-0.218-0.367
	c-0.072-0.118-0.142-0.243-0.212-0.364s-0.14-0.242-0.208-0.363c-0.068-0.123-0.135-0.243-0.202-0.365
	c-0.066-0.121-0.132-0.242-0.197-0.364c-0.064-0.12-0.13-0.243-0.193-0.364s-0.125-0.242-0.187-0.365
	c-0.061-0.12-0.122-0.243-0.182-0.365c-0.06-0.121-0.12-0.242-0.178-0.364c-0.059-0.121-0.116-0.243-0.172-0.364
	c-0.057-0.122-0.113-0.243-0.168-0.364c-0.055-0.122-0.111-0.243-0.165-0.365c-0.054-0.122-0.105-0.244-0.157-0.365
	c-0.052-0.121-0.104-0.243-0.154-0.365c-0.051-0.121-0.101-0.242-0.15-0.364c-0.049-0.121-0.097-0.243-0.144-0.365
	c-0.048-0.121-0.095-0.243-0.141-0.364C2.92,56.804,2.875,56.682,2.83,56.56c-0.044-0.121-0.088-0.243-0.131-0.365
	c-0.043-0.121-0.087-0.242-0.128-0.364c-0.042-0.121-0.082-0.243-0.122-0.365c-0.04-0.121-0.079-0.242-0.118-0.364
	s-0.077-0.243-0.115-0.365c-0.037-0.121-0.073-0.243-0.109-0.365C2.071,54.251,2.035,54.13,2,54.008
	c-0.034-0.121-0.068-0.243-0.101-0.365c-0.032-0.121-0.065-0.242-0.097-0.364c-0.032-0.122-0.063-0.243-0.094-0.365
	c-0.03-0.121-0.059-0.243-0.088-0.364c-0.029-0.122-0.058-0.243-0.086-0.365c-0.028-0.122-0.054-0.243-0.08-0.364
	c-0.027-0.122-0.053-0.243-0.078-0.365s-0.05-0.243-0.074-0.365c-0.023-0.121-0.046-0.243-0.068-0.364
	c-0.022-0.122-0.046-0.243-0.067-0.365c-0.021-0.121-0.04-0.243-0.06-0.364c-0.02-0.122-0.039-0.243-0.058-0.365
	c-0.019-0.121-0.037-0.243-0.054-0.365c-0.018-0.121-0.034-0.243-0.05-0.364c-0.016-0.122-0.033-0.243-0.047-0.365
	c-0.016-0.121-0.029-0.243-0.042-0.365c-0.014-0.121-0.028-0.242-0.04-0.364c-0.013-0.121-0.023-0.243-0.034-0.365
	c-0.012-0.121-0.023-0.242-0.033-0.364c-0.009-0.122-0.019-0.243-0.028-0.365c-0.009-0.121-0.016-0.243-0.024-0.364
	c-0.008-0.122-0.015-0.243-0.022-0.365c-0.006-0.121-0.011-0.243-0.016-0.364c-0.005-0.122-0.011-0.243-0.015-0.365
	c-0.004-0.121-0.007-0.243-0.01-0.365c-0.003-0.121-0.005-0.242-0.007-0.364c-0.001-0.122-0.002-0.243-0.003-0.365
	c0-0.062-0.002-0.124-0.002-0.187c0-0.059,0.003-0.118,0.003-0.177c0.001-0.122,0.004-0.243,0.006-0.365
	c0.001-0.122,0.002-0.243,0.005-0.365c0.002-0.121,0.005-0.243,0.009-0.364c0.004-0.122,0.011-0.243,0.016-0.365
	c0.005-0.121,0.01-0.243,0.016-0.364c0.007-0.122,0.012-0.243,0.019-0.365c0.008-0.122,0.018-0.243,0.027-0.365
	c0.008-0.121,0.017-0.243,0.027-0.365c0.01-0.12,0.017-0.242,0.029-0.364c0.011-0.122,0.025-0.243,0.038-0.364
	c0.012-0.122,0.024-0.244,0.037-0.365s0.025-0.243,0.039-0.365c0.015-0.122,0.033-0.242,0.048-0.364
	c0.016-0.122,0.033-0.243,0.049-0.365c0.017-0.121,0.031-0.243,0.05-0.364c0.018-0.122,0.04-0.243,0.059-0.365
	c0.02-0.122,0.039-0.243,0.06-0.364c0.02-0.122,0.038-0.244,0.06-0.365c0.022-0.122,0.047-0.243,0.07-0.364
	c0.023-0.122,0.047-0.244,0.071-0.365c0.024-0.122,0.046-0.244,0.072-0.365c0.025-0.122,0.054-0.243,0.081-0.364
	c0.026-0.122,0.054-0.244,0.081-0.365c0.029-0.121,0.054-0.243,0.084-0.364c0.029-0.123,0.062-0.244,0.092-0.365
	c0.03-0.122,0.061-0.243,0.092-0.365c0.033-0.121,0.063-0.243,0.096-0.364c0.033-0.123,0.07-0.244,0.104-0.365
	c0.034-0.121,0.068-0.243,0.104-0.364c0.036-0.122,0.071-0.244,0.107-0.365c0.037-0.122,0.077-0.243,0.116-0.365
	c0.038-0.121,0.075-0.243,0.115-0.365c0.039-0.121,0.08-0.243,0.12-0.364c0.041-0.122,0.085-0.243,0.127-0.365
	c0.042-0.121,0.083-0.243,0.127-0.364c0.044-0.122,0.089-0.243,0.134-0.365c0.045-0.121,0.092-0.243,0.138-0.364
	c0.046-0.122,0.091-0.244,0.139-0.365c0.048-0.122,0.099-0.242,0.148-0.364s0.099-0.244,0.15-0.365
	c0.05-0.121,0.099-0.243,0.15-0.364c0.053-0.123,0.109-0.243,0.163-0.365c0.053-0.122,0.107-0.244,0.162-0.364
	c0.055-0.122,0.11-0.244,0.166-0.365c0.057-0.122,0.116-0.243,0.174-0.364c0.058-0.122,0.116-0.244,0.175-0.365
	c0.059-0.122,0.12-0.244,0.181-0.365c0.062-0.122,0.124-0.243,0.187-0.364c0.063-0.122,0.124-0.245,0.187-0.365
	c0.065-0.123,0.133-0.243,0.199-0.365c0.066-0.121,0.132-0.243,0.2-0.364c0.067-0.122,0.134-0.244,0.202-0.365
	c0.07-0.122,0.142-0.243,0.213-0.364c0.071-0.122,0.14-0.245,0.212-0.365c0.073-0.122,0.148-0.243,0.221-0.365
	c0.075-0.122,0.15-0.243,0.226-0.364c0.076-0.122,0.15-0.244,0.228-0.365c0.077-0.122,0.159-0.243,0.238-0.365
	c0.08-0.121,0.159-0.243,0.24-0.364c0.081-0.122,0.164-0.244,0.247-0.365c0.084-0.121,0.168-0.243,0.253-0.364
	c0.085-0.122,0.169-0.244,0.255-0.365c0.087-0.122,0.178-0.242,0.267-0.364S8.51,20.587,8.6,20.466
	c0.092-0.122,0.185-0.243,0.278-0.364c0.093-0.122,0.187-0.244,0.281-0.365c0.095-0.122,0.19-0.244,0.286-0.365
	c0.098-0.122,0.198-0.243,0.297-0.364c0.099-0.122,0.197-0.245,0.297-0.365c0.102-0.122,0.207-0.243,0.311-0.364
	c0.104-0.122,0.208-0.244,0.313-0.365c0.107-0.122,0.214-0.243,0.322-0.365c0.108-0.122,0.218-0.243,0.328-0.364
	c0.112-0.122,0.222-0.244,0.334-0.365c0.114-0.122,0.23-0.243,0.346-0.365c0.115-0.121,0.229-0.243,0.346-0.364
	c0.12-0.123,0.242-0.243,0.363-0.365c0.121-0.121,0.24-0.243,0.363-0.364c0.125-0.123,0.253-0.243,0.379-0.365
	c0.127-0.122,0.253-0.244,0.381-0.364c0.13-0.123,0.262-0.244,0.395-0.365c0.133-0.122,0.265-0.244,0.4-0.364
	c0.136-0.123,0.274-0.244,0.412-0.365c0.139-0.122,0.278-0.244,0.419-0.365c0.143-0.123,0.287-0.243,0.432-0.364
	c0.146-0.122,0.292-0.244,0.44-0.365c0.15-0.122,0.302-0.243,0.453-0.364c0.154-0.122,0.307-0.245,0.462-0.365
	c0.158-0.123,0.317-0.244,0.477-0.364c0.161-0.122,0.322-0.245,0.485-0.365c0.166-0.123,0.334-0.244,0.502-0.365
	c0.17-0.121,0.338-0.245,0.509-0.364c0.176-0.124,0.355-0.244,0.533-0.365c0.179-0.122,0.356-0.245,0.537-0.364
	c0.186-0.123,0.374-0.244,0.562-0.365c0.19-0.122,0.38-0.244,0.573-0.365c0.195-0.122,0.391-0.244,0.59-0.365
	c0.202-0.122,0.407-0.243,0.612-0.364c0.207-0.122,0.414-0.245,0.624-0.365c0.216-0.123,0.435-0.243,0.654-0.364
	c0.223-0.123,0.448-0.244,0.673-0.365c0.23-0.122,0.458-0.245,0.691-0.364c0.241-0.124,0.485-0.244,0.728-0.365
	c0.249-0.123,0.5-0.244,0.752-0.365c0.258-0.122,0.517-0.245,0.778-0.364c0.271-0.124,0.543-0.245,0.817-0.364
	c0.284-0.124,0.571-0.245,0.858-0.365c0.298-0.124,0.597-0.246,0.898-0.365c0.313-0.124,0.628-0.246,0.944-0.364
	c0.332-0.125,0.663-0.247,0.998-0.365c0.353-0.124,0.707-0.246,1.063-0.364c0.378-0.126,0.758-0.247,1.14-0.365
	c0.409-0.126,0.822-0.247,1.235-0.364c0.449-0.128,0.901-0.249,1.355-0.365c0.498-0.128,1-0.249,1.505-0.365
	c0.564-0.129,1.131-0.252,1.702-0.364c0.678-0.134,1.361-0.254,2.048-0.365C42.955,1.002,43.837,0.881,44.726,0.779L44.726,0.779z
	 M87.361,59.363c-2.541,0-5.103,2.573-5.103,5.127c0,2.594,2.562,5.128,5.103,5.128c3.859,0,6.387-2.534,6.387-5.128
	C93.748,61.936,91.221,59.363,87.361,59.363L87.361,59.363z M115.424,59.363c-2.521,0-5.068,2.573-5.068,5.127
	c0,2.594,2.545,5.128,5.068,5.128c3.824,0,6.387-2.534,6.387-5.128C121.811,61.936,119.248,59.363,115.424,59.363L115.424,59.363z
	 M35.066,22.18c-3.824,0-7.683,2.538-7.683,6.394c0,3.846,3.859,6.417,7.683,6.417c3.824,0,6.368-2.571,6.368-6.417
	C41.434,24.718,38.89,22.18,35.066,22.18L35.066,22.18z M70.77,34.991c3.841,0,6.387-2.571,6.387-6.417
	c0-3.855-2.546-6.394-6.387-6.394c-3.823,0-7.66,2.538-7.66,6.394C63.11,32.42,66.947,34.991,70.77,34.991L70.77,34.991z
	 M69.313,50.939c0.11-0.104,0.222-0.207,0.334-0.31s0.224-0.207,0.338-0.31c0.115-0.104,0.233-0.207,0.35-0.309
	c0.118-0.104,0.235-0.208,0.354-0.31c0.121-0.105,0.245-0.207,0.367-0.31c0.124-0.103,0.246-0.207,0.371-0.31
	c0.127-0.104,0.257-0.206,0.386-0.309c0.129-0.104,0.258-0.208,0.389-0.31c0.134-0.104,0.27-0.207,0.405-0.31
	c0.137-0.103,0.272-0.207,0.411-0.309c0.141-0.105,0.282-0.207,0.426-0.31s0.287-0.208,0.433-0.31
	c0.147-0.104,0.298-0.207,0.447-0.31c0.153-0.104,0.306-0.206,0.46-0.309c0.156-0.104,0.311-0.208,0.469-0.31
	c0.162-0.104,0.326-0.207,0.49-0.31s0.328-0.208,0.496-0.31c0.172-0.104,0.346-0.206,0.519-0.309
	c0.177-0.104,0.354-0.208,0.533-0.31c0.183-0.104,0.364-0.208,0.548-0.309c0.189-0.106,0.383-0.208,0.573-0.31
	c0.196-0.105,0.392-0.208,0.588-0.31c0.203-0.104,0.405-0.208,0.61-0.31c0.211-0.104,0.426-0.207,0.641-0.309
	c0.219-0.105,0.439-0.208,0.662-0.31c0.229-0.104,0.456-0.209,0.688-0.309c0.24-0.106,0.482-0.209,0.727-0.31
	c0.253-0.106,0.508-0.208,0.764-0.31c0.266-0.106,0.533-0.208,0.803-0.309c0.28-0.106,0.563-0.21,0.848-0.31
	c0.299-0.106,0.6-0.21,0.902-0.31c0.319-0.106,0.643-0.21,0.969-0.31c0.347-0.107,0.695-0.21,1.047-0.31
	c0.38-0.107,0.764-0.21,1.148-0.309c0.422-0.109,0.848-0.212,1.276-0.31c0.478-0.109,0.958-0.214,1.442-0.309
	c0.578-0.114,1.16-0.216,1.748-0.31c0.742-0.12,1.494-0.223,2.25-0.31c1.884-0.216,3.808-0.331,5.767-0.336h0.272
	c1.852,0.005,3.686,0.12,5.494,0.336c0.726,0.087,1.447,0.19,2.164,0.31c0.567,0.094,1.131,0.196,1.691,0.31
	c0.47,0.095,0.936,0.2,1.4,0.309c0.418,0.098,0.832,0.201,1.246,0.31c0.375,0.099,0.75,0.202,1.121,0.309
	c0.344,0.1,0.688,0.203,1.028,0.31c0.317,0.1,0.636,0.204,0.952,0.31c0.297,0.1,0.593,0.204,0.888,0.31
	c0.28,0.1,0.56,0.204,0.839,0.31c0.264,0.101,0.528,0.203,0.791,0.309c0.254,0.102,0.506,0.204,0.758,0.31
	c0.241,0.101,0.48,0.204,0.721,0.31c0.229,0.1,0.455,0.205,0.683,0.309c0.222,0.102,0.442,0.205,0.66,0.31
	c0.214,0.102,0.427,0.205,0.638,0.309c0.205,0.102,0.408,0.206,0.611,0.31c0.195,0.102,0.393,0.205,0.587,0.31
	c0.192,0.102,0.386,0.204,0.575,0.31c0.184,0.101,0.367,0.205,0.549,0.309c0.18,0.102,0.357,0.206,0.535,0.31
	c0.174,0.103,0.35,0.205,0.521,0.309c0.168,0.102,0.334,0.207,0.5,0.31s0.332,0.206,0.493,0.31c0.159,0.102,0.316,0.206,0.474,0.31
	c0.156,0.102,0.312,0.205,0.466,0.309c0.151,0.103,0.302,0.206,0.45,0.31c0.147,0.102,0.293,0.206,0.439,0.31
	c0.145,0.104,0.288,0.205,0.432,0.31c0.14,0.102,0.277,0.206,0.416,0.309c0.138,0.103,0.274,0.206,0.412,0.31
	c0.131,0.102,0.264,0.206,0.395,0.31c0.131,0.103,0.262,0.205,0.393,0.309c0.127,0.103,0.252,0.207,0.377,0.31
	s0.252,0.205,0.375,0.31c0.121,0.102,0.24,0.206,0.36,0.31c0.12,0.102,0.239,0.205,0.358,0.309c0.115,0.103,0.23,0.207,0.345,0.31
	s0.229,0.206,0.342,0.31c0.11,0.102,0.222,0.206,0.331,0.309s0.217,0.206,0.326,0.31c0.107,0.103,0.213,0.206,0.318,0.31
	c0.104,0.102,0.209,0.206,0.312,0.31c0.103,0.102,0.205,0.205,0.306,0.309c0.102,0.102,0.198,0.206,0.297,0.31
	c0.1,0.103,0.199,0.205,0.297,0.309c0.096,0.103,0.188,0.207,0.283,0.31c0.094,0.103,0.189,0.206,0.282,0.31
	c0.091,0.103,0.183,0.206,0.272,0.31c0.091,0.103,0.181,0.205,0.27,0.309c0.088,0.103,0.176,0.206,0.264,0.31
	c0.086,0.102,0.172,0.206,0.256,0.31c0.086,0.103,0.172,0.205,0.256,0.309c0.082,0.103,0.162,0.207,0.244,0.31
	s0.164,0.206,0.244,0.31c0.08,0.103,0.158,0.206,0.236,0.31c0.077,0.103,0.154,0.206,0.23,0.309s0.154,0.206,0.229,0.31
	c0.076,0.102,0.147,0.206,0.222,0.31c0.072,0.103,0.146,0.206,0.219,0.309c0.07,0.103,0.141,0.207,0.212,0.31
	c0.069,0.103,0.139,0.206,0.206,0.31c0.07,0.103,0.139,0.205,0.207,0.309c0.066,0.103,0.131,0.207,0.197,0.31
	c0.065,0.104,0.131,0.206,0.195,0.31c0.064,0.103,0.127,0.206,0.189,0.31c0.063,0.102,0.125,0.205,0.187,0.309
	s0.124,0.206,0.185,0.309c0.06,0.104,0.117,0.208,0.174,0.31c0.06,0.104,0.117,0.207,0.176,0.31c0.057,0.104,0.115,0.208,0.17,0.312
	c0.057,0.103,0.109,0.205,0.164,0.31c0.054,0.104,0.109,0.206,0.164,0.31c0.052,0.102,0.104,0.205,0.156,0.309
	c0.052,0.104,0.102,0.207,0.152,0.31c0.051,0.104,0.104,0.206,0.153,0.31c0.048,0.104,0.094,0.207,0.144,0.31
	c0.047,0.104,0.094,0.208,0.142,0.312c0.047,0.103,0.095,0.205,0.14,0.31c0.045,0.103,0.088,0.206,0.133,0.31
	s0.09,0.205,0.133,0.309c0.041,0.104,0.084,0.207,0.127,0.311c0.041,0.104,0.08,0.205,0.121,0.309
	c0.041,0.104,0.082,0.207,0.123,0.31c0.039,0.104,0.076,0.208,0.114,0.312c0.039,0.103,0.075,0.205,0.112,0.31
	c0.037,0.103,0.076,0.206,0.111,0.31c0.037,0.102,0.069,0.205,0.104,0.309c0.034,0.105,0.069,0.207,0.103,0.311
	s0.068,0.205,0.102,0.309c0.031,0.104,0.061,0.209,0.092,0.31c0.031,0.104,0.063,0.208,0.092,0.31
	c0.03,0.104,0.063,0.207,0.092,0.312c0.029,0.103,0.055,0.206,0.082,0.31c0.027,0.103,0.056,0.205,0.082,0.309
	c0.026,0.105,0.056,0.207,0.08,0.311c0.026,0.102,0.049,0.205,0.072,0.309c0.025,0.104,0.049,0.207,0.074,0.31
	c0.023,0.104,0.047,0.206,0.07,0.31c0.021,0.104,0.041,0.207,0.062,0.31c0.022,0.104,0.043,0.208,0.062,0.312
	c0.021,0.103,0.043,0.205,0.063,0.31c0.018,0.103,0.034,0.206,0.053,0.31c0.018,0.104,0.036,0.205,0.053,0.309
	c0.017,0.104,0.035,0.207,0.051,0.31c0.015,0.104,0.027,0.208,0.043,0.31c0.015,0.104,0.029,0.207,0.044,0.31
	c0.013,0.104,0.028,0.208,0.04,0.31c0.013,0.104,0.023,0.207,0.035,0.312c0.01,0.103,0.021,0.206,0.033,0.31
	c0.01,0.104,0.021,0.205,0.031,0.309c0.01,0.103,0.016,0.207,0.024,0.311c0.008,0.104,0.017,0.205,0.024,0.309
	c0.006,0.104,0.016,0.209,0.022,0.31c0.006,0.104,0.009,0.208,0.015,0.31c0.006,0.104,0.01,0.207,0.014,0.312
	c0.004,0.103,0.011,0.206,0.014,0.31c0.003,0.102,0.003,0.205,0.005,0.309c0.002,0.105,0.004,0.207,0.005,0.311l0.002,0.09v0.219
	v0.31v0.054c-0.002,0.086-0.002,0.172-0.005,0.256c-0.002,0.104-0.006,0.209-0.009,0.312c-0.004,0.103-0.01,0.206-0.014,0.31
	c-0.004,0.104-0.01,0.205-0.016,0.309c-0.006,0.105-0.013,0.207-0.021,0.311c-0.007,0.104-0.013,0.205-0.021,0.309
	c-0.01,0.104-0.02,0.209-0.028,0.31c-0.01,0.104-0.021,0.208-0.031,0.31c-0.01,0.104-0.023,0.209-0.035,0.31
	c-0.012,0.104-0.025,0.208-0.038,0.312c-0.013,0.103-0.026,0.205-0.042,0.309c-0.014,0.105-0.029,0.207-0.045,0.311
	c-0.018,0.104-0.033,0.205-0.049,0.309c-0.018,0.104-0.036,0.207-0.055,0.31c-0.018,0.104-0.037,0.208-0.056,0.31
	c-0.021,0.104-0.04,0.209-0.062,0.31c-0.02,0.104-0.043,0.208-0.063,0.312c-0.022,0.103-0.044,0.205-0.067,0.31
	c-0.023,0.103-0.047,0.206-0.071,0.31c-0.025,0.104-0.05,0.205-0.075,0.309c-0.025,0.104-0.052,0.207-0.079,0.311
	c-0.026,0.104-0.055,0.205-0.083,0.309c-0.027,0.104-0.057,0.209-0.086,0.31c-0.029,0.104-0.061,0.208-0.091,0.312
	c-0.031,0.103-0.062,0.207-0.093,0.31c-0.032,0.103-0.064,0.206-0.098,0.31c-0.033,0.102-0.068,0.205-0.103,0.309
	c-0.034,0.104-0.069,0.207-0.104,0.311s-0.072,0.207-0.109,0.309c-0.036,0.104-0.074,0.209-0.112,0.311
	c-0.039,0.104-0.076,0.207-0.116,0.309c-0.039,0.104-0.08,0.209-0.121,0.312s-0.082,0.206-0.123,0.31
	c-0.043,0.102-0.086,0.205-0.129,0.309c-0.043,0.105-0.088,0.207-0.133,0.311c-0.044,0.104-0.089,0.205-0.135,0.309
	c-0.045,0.104-0.092,0.209-0.141,0.311c-0.047,0.104-0.095,0.207-0.143,0.309c-0.049,0.104-0.098,0.209-0.146,0.31
	c-0.051,0.104-0.102,0.208-0.151,0.312c-0.052,0.103-0.104,0.205-0.155,0.309c-0.053,0.104-0.105,0.207-0.158,0.311
	c-0.055,0.104-0.109,0.205-0.164,0.309c-0.057,0.104-0.11,0.207-0.168,0.311c-0.056,0.104-0.113,0.207-0.17,0.309
	c-0.058,0.104-0.117,0.209-0.177,0.31c-0.058,0.104-0.118,0.208-0.177,0.31c-0.061,0.104-0.122,0.207-0.184,0.312
	c-0.062,0.103-0.125,0.206-0.188,0.31s-0.126,0.205-0.189,0.309c-0.065,0.104-0.132,0.207-0.197,0.311
	c-0.064,0.104-0.133,0.205-0.199,0.309c-0.066,0.104-0.133,0.209-0.203,0.311c-0.068,0.104-0.137,0.207-0.207,0.309
	c-0.07,0.104-0.141,0.209-0.213,0.309c-0.071,0.105-0.143,0.209-0.215,0.313c-0.072,0.102-0.146,0.205-0.221,0.309
	c-0.074,0.104-0.148,0.207-0.224,0.311s-0.151,0.207-0.228,0.309c-0.078,0.104-0.155,0.209-0.233,0.311
	c-0.079,0.104-0.159,0.207-0.237,0.309c-0.082,0.104-0.162,0.209-0.242,0.312c-0.082,0.103-0.164,0.206-0.246,0.31
	c-0.082,0.102-0.168,0.205-0.252,0.309c-0.084,0.105-0.168,0.207-0.254,0.311s-0.172,0.205-0.258,0.309
	c-0.089,0.104-0.177,0.209-0.266,0.311c-0.088,0.104-0.178,0.207-0.27,0.309c-0.088,0.104-0.18,0.209-0.271,0.31
	c-0.092,0.104-0.184,0.208-0.277,0.31c-0.094,0.104-0.188,0.207-0.283,0.311c-0.095,0.105-0.19,0.207-0.287,0.311
	c-0.096,0.104-0.192,0.205-0.291,0.309c-0.098,0.104-0.196,0.207-0.297,0.311c-0.1,0.104-0.201,0.207-0.301,0.309
	c-0.102,0.104-0.205,0.209-0.307,0.31c-0.104,0.104-0.207,0.208-0.311,0.31c-0.104,0.104-0.211,0.207-0.316,0.311
	c-0.107,0.104-0.215,0.207-0.321,0.311c-0.108,0.102-0.218,0.205-0.327,0.309c-0.109,0.104-0.22,0.207-0.33,0.311
	c-0.113,0.104-0.225,0.207-0.336,0.309c-0.115,0.104-0.229,0.209-0.344,0.311c-0.115,0.104-0.23,0.207-0.348,0.309
	c-0.117,0.104-0.234,0.209-0.354,0.312s-0.238,0.206-0.357,0.31c-0.12,0.104-0.241,0.205-0.363,0.309
	c-0.123,0.104-0.247,0.207-0.371,0.311s-0.249,0.207-0.375,0.309c-0.126,0.104-0.254,0.209-0.382,0.311
	c-0.127,0.104-0.257,0.207-0.386,0.309c-0.131,0.104-0.262,0.209-0.393,0.312c-0.133,0.103-0.266,0.206-0.4,0.31
	s-0.271,0.205-0.405,0.309l-0.142,0.107l0.062,0.203l0.092,0.309l0.093,0.311l0.094,0.309l0.093,0.31l0.093,0.31l0.092,0.311
	l0.094,0.311l0.092,0.309l0.093,0.311l0.094,0.309l0.093,0.31l0.092,0.31l0.093,0.309l0.094,0.313l0.093,0.309l0.092,0.311
	l0.093,0.309l0.093,0.311l0.094,0.309l0.092,0.309l0.094,0.313l0.092,0.309l0.093,0.311l0.093,0.309l0.094,0.311l0.093,0.309
	l0.092,0.309l0.093,0.313l0.092,0.309l0.094,0.311l0.093,0.309l0.093,0.311l0.094,0.309l0.092,0.31l0.093,0.31l0.094,0.311
	l0.093,0.311l0.092,0.309l0.093,0.311l0.093,0.309l0.066,0.221l-0.4-0.221l-0.564-0.309l-0.563-0.311l-0.563-0.309l-0.563-0.311
	l-0.563-0.311l-0.563-0.31l-0.563-0.31l-0.563-0.309l-0.562-0.311l-0.563-0.309l-0.564-0.311l-0.562-0.309l-0.563-0.313
	l-0.563-0.309l-0.563-0.309l-0.563-0.311l-0.563-0.309l-0.563-0.311l-0.562-0.309l-0.563-0.313l-0.563-0.309l-0.562-0.309
	l-0.563-0.311l-0.563-0.309l-0.088-0.049l-0.193,0.049c-0.412,0.104-0.822,0.207-1.234,0.309c-0.416,0.104-0.834,0.209-1.252,0.311
	c-0.431,0.105-0.861,0.209-1.291,0.309c-0.453,0.108-0.904,0.211-1.355,0.309c-0.487,0.109-0.973,0.213-1.458,0.313
	c-0.544,0.109-1.088,0.213-1.632,0.309c-0.658,0.117-1.316,0.221-1.975,0.311c-1.063,0.145-2.125,0.252-3.188,0.309
	c-0.577,0.031-1.154,0.047-1.73,0.047c-0.754,0-1.502-0.016-2.246-0.047c-1.295-0.055-2.572-0.16-3.832-0.309
	c-0.742-0.088-1.479-0.191-2.209-0.311c-0.578-0.094-1.152-0.197-1.721-0.309c-0.482-0.096-0.961-0.201-1.436-0.313
	c-0.426-0.098-0.848-0.198-1.27-0.309c-0.383-0.098-0.764-0.201-1.143-0.309c-0.35-0.1-0.697-0.202-1.043-0.311
	c-0.324-0.1-0.645-0.203-0.965-0.309c-0.301-0.1-0.6-0.204-0.898-0.311c-0.281-0.102-0.564-0.205-0.844-0.309
	c-0.268-0.102-0.535-0.205-0.799-0.313c-0.256-0.098-0.508-0.202-0.762-0.309c-0.242-0.102-0.486-0.203-0.727-0.31
	c-0.23-0.099-0.458-0.205-0.686-0.31c-0.221-0.102-0.44-0.203-0.66-0.309c-0.213-0.102-0.426-0.206-0.637-0.311
	c-0.205-0.102-0.408-0.205-0.611-0.309c-0.196-0.102-0.392-0.205-0.586-0.311c-0.19-0.104-0.383-0.204-0.571-0.311
	c-0.183-0.102-0.365-0.203-0.548-0.31c-0.178-0.101-0.354-0.205-0.531-0.31c-0.173-0.102-0.348-0.203-0.52-0.309
	c-0.166-0.102-0.33-0.206-0.494-0.311c-0.164-0.102-0.326-0.205-0.488-0.309c-0.156-0.102-0.313-0.206-0.469-0.311
	c-0.153-0.102-0.307-0.205-0.459-0.309c-0.148-0.104-0.299-0.205-0.447-0.31c-0.145-0.103-0.287-0.207-0.432-0.312
	c-0.143-0.102-0.285-0.203-0.424-0.309c-0.138-0.102-0.273-0.206-0.409-0.311c-0.135-0.104-0.271-0.205-0.405-0.309
	c-0.131-0.102-0.259-0.206-0.388-0.311c-0.129-0.104-0.259-0.205-0.386-0.309c-0.124-0.104-0.246-0.207-0.369-0.31
	s-0.247-0.205-0.368-0.312c-0.119-0.102-0.234-0.205-0.352-0.309c-0.117-0.102-0.235-0.206-0.351-0.311
	c-0.113-0.102-0.224-0.205-0.336-0.309c-0.111-0.104-0.223-0.206-0.334-0.311c-0.108-0.102-0.215-0.207-0.322-0.309
	c-0.106-0.104-0.213-0.205-0.318-0.311c-0.104-0.104-0.207-0.206-0.31-0.311c-0.101-0.102-0.203-0.205-0.303-0.31
	c-0.1-0.101-0.199-0.205-0.297-0.31c-0.098-0.102-0.194-0.205-0.29-0.309c-0.095-0.104-0.192-0.206-0.286-0.311
	c-0.093-0.102-0.183-0.207-0.275-0.309c-0.091-0.104-0.184-0.205-0.275-0.311c-0.088-0.104-0.175-0.207-0.263-0.311
	c-0.088-0.102-0.175-0.205-0.262-0.31c-0.085-0.101-0.17-0.205-0.253-0.31c-0.084-0.102-0.167-0.205-0.249-0.309
	c-0.082-0.102-0.165-0.206-0.246-0.311c-0.08-0.102-0.157-0.207-0.236-0.309c-0.078-0.104-0.158-0.205-0.235-0.311
	c-0.077-0.104-0.152-0.207-0.227-0.309c-0.075-0.104-0.15-0.207-0.223-0.31c-0.074-0.103-0.148-0.207-0.221-0.312
	c-0.071-0.102-0.14-0.205-0.212-0.309c-0.07-0.104-0.142-0.206-0.211-0.311c-0.068-0.102-0.135-0.205-0.202-0.309
	s-0.134-0.206-0.2-0.311c-0.066-0.104-0.133-0.205-0.197-0.309s-0.126-0.207-0.189-0.313c-0.063-0.1-0.127-0.202-0.189-0.309
	c-0.061-0.102-0.12-0.205-0.181-0.309c-0.059-0.102-0.119-0.206-0.178-0.311c-0.058-0.104-0.119-0.205-0.176-0.309
	c-0.057-0.102-0.111-0.208-0.167-0.311c-0.056-0.104-0.112-0.205-0.167-0.309c-0.054-0.104-0.108-0.207-0.163-0.31
	c-0.052-0.104-0.103-0.207-0.156-0.312c-0.052-0.102-0.105-0.205-0.156-0.31c-0.05-0.101-0.099-0.205-0.148-0.31
	c-0.049-0.102-0.098-0.205-0.146-0.309c-0.049-0.104-0.098-0.206-0.145-0.311c-0.047-0.102-0.091-0.207-0.136-0.309
	c-0.046-0.104-0.092-0.205-0.136-0.311c-0.045-0.104-0.089-0.206-0.133-0.309c-0.043-0.104-0.084-0.207-0.126-0.312
	c-0.042-0.101-0.084-0.205-0.125-0.31c-0.041-0.102-0.081-0.205-0.121-0.309c-0.039-0.102-0.077-0.206-0.116-0.311
	c-0.038-0.104-0.078-0.205-0.116-0.309c-0.037-0.104-0.072-0.208-0.108-0.311c-0.036-0.104-0.071-0.207-0.106-0.309
	c-0.036-0.104-0.073-0.207-0.107-0.31c-0.033-0.103-0.064-0.207-0.097-0.312c-0.033-0.102-0.065-0.205-0.097-0.309
	c-0.031-0.104-0.065-0.206-0.096-0.311c-0.03-0.102-0.057-0.205-0.087-0.309c-0.029-0.104-0.058-0.206-0.087-0.311
	c-0.028-0.104-0.058-0.205-0.085-0.309s-0.052-0.207-0.078-0.31s-0.052-0.207-0.077-0.31c-0.026-0.104-0.052-0.207-0.076-0.312
	c-0.024-0.101-0.045-0.205-0.069-0.31c-0.022-0.104-0.045-0.205-0.068-0.309c-0.022-0.104-0.044-0.206-0.066-0.311
	c-0.02-0.104-0.038-0.207-0.058-0.309c-0.02-0.104-0.041-0.207-0.059-0.31c-0.019-0.104-0.038-0.207-0.057-0.31
	c-0.018-0.104-0.033-0.207-0.049-0.312c-0.017-0.101-0.034-0.205-0.05-0.31c-0.016-0.102-0.032-0.205-0.047-0.31
	c-0.015-0.101-0.027-0.205-0.041-0.31c-0.014-0.104-0.028-0.205-0.041-0.309c-0.013-0.104-0.026-0.205-0.038-0.311
	c-0.011-0.104-0.021-0.206-0.031-0.309c-0.011-0.104-0.022-0.207-0.032-0.312c-0.01-0.101-0.02-0.205-0.029-0.31
	c-0.009-0.102-0.015-0.205-0.023-0.31c-0.007-0.101-0.015-0.205-0.022-0.31c-0.007-0.104-0.015-0.205-0.02-0.309
	c-0.006-0.104-0.009-0.208-0.014-0.311l-0.014-0.309c-0.004-0.104-0.009-0.207-0.012-0.31c-0.003-0.103-0.002-0.207-0.004-0.312
	l-0.005-0.31c-0.001-0.099-0.005-0.196-0.005-0.299l0.001-0.011c0-0.104,0.003-0.205,0.004-0.309s0.003-0.205,0.005-0.311
	c0.002-0.104,0.002-0.207,0.005-0.309c0.002-0.104,0.008-0.207,0.012-0.31c0.004-0.104,0.009-0.207,0.014-0.312
	c0.005-0.102,0.008-0.205,0.014-0.31c0.005-0.101,0.014-0.205,0.021-0.31c0.007-0.104,0.015-0.205,0.022-0.309
	c0.008-0.104,0.014-0.208,0.023-0.311c0.009-0.104,0.02-0.205,0.03-0.309c0.01-0.104,0.02-0.207,0.031-0.31
	c0.011-0.104,0.02-0.207,0.032-0.312c0.012-0.102,0.026-0.205,0.039-0.31c0.012-0.103,0.027-0.205,0.041-0.31
	c0.014-0.102,0.026-0.205,0.041-0.31c0.014-0.103,0.031-0.205,0.047-0.31c0.016-0.104,0.033-0.205,0.05-0.309
	c0.017-0.104,0.032-0.207,0.05-0.31c0.018-0.104,0.038-0.207,0.057-0.31c0.019-0.104,0.039-0.207,0.059-0.312
	c0.02-0.103,0.038-0.205,0.059-0.31c0.022-0.104,0.045-0.205,0.067-0.31c0.022-0.103,0.045-0.205,0.068-0.31
	c0.024-0.104,0.045-0.207,0.069-0.309c0.024-0.104,0.051-0.205,0.076-0.311c0.026-0.104,0.052-0.206,0.078-0.309
	c0.026-0.104,0.05-0.207,0.077-0.31c0.028-0.104,0.059-0.207,0.087-0.312c0.028-0.102,0.058-0.205,0.087-0.31
	c0.03-0.101,0.057-0.205,0.088-0.31c0.031-0.104,0.065-0.205,0.097-0.309c0.032-0.104,0.063-0.205,0.097-0.311
	c0.032-0.104,0.064-0.207,0.098-0.309c0.034-0.104,0.071-0.207,0.106-0.31c0.035-0.104,0.07-0.207,0.106-0.31
	c0.037-0.104,0.073-0.207,0.11-0.312c0.038-0.103,0.077-0.205,0.116-0.31c0.039-0.104,0.077-0.205,0.116-0.309
	c0.04-0.104,0.08-0.206,0.121-0.311c0.042-0.104,0.085-0.205,0.127-0.309s0.082-0.207,0.125-0.31c0.044-0.104,0.09-0.207,0.134-0.31
	c0.045-0.104,0.09-0.207,0.136-0.312c0.046-0.103,0.089-0.205,0.137-0.31c0.047-0.104,0.097-0.205,0.145-0.31
	c0.049-0.103,0.097-0.205,0.146-0.31c0.05-0.104,0.099-0.207,0.15-0.309c0.051-0.104,0.104-0.205,0.157-0.31
	c0.052-0.104,0.102-0.207,0.155-0.31c0.054-0.104,0.11-0.207,0.165-0.312c0.054-0.103,0.11-0.205,0.166-0.31
	c0.056-0.102,0.11-0.205,0.167-0.31c0.058-0.103,0.119-0.205,0.178-0.309c0.059-0.104,0.118-0.207,0.178-0.309
	c0.06-0.104,0.12-0.207,0.182-0.31c0.062-0.104,0.126-0.206,0.189-0.31c0.063-0.103,0.125-0.207,0.189-0.31
	c0.065-0.104,0.132-0.206,0.198-0.309c0.066-0.104,0.133-0.207,0.2-0.31c0.068-0.103,0.135-0.207,0.204-0.31
	c0.069-0.103,0.141-0.206,0.211-0.309c0.071-0.104,0.14-0.208,0.212-0.31c0.072-0.104,0.147-0.207,0.221-0.31
	c0.075-0.103,0.149-0.206,0.224-0.31c0.076-0.103,0.151-0.206,0.228-0.309c0.077-0.104,0.157-0.207,0.235-0.31
	c0.079-0.103,0.156-0.207,0.236-0.31c0.082-0.104,0.166-0.206,0.248-0.309c0.082-0.104,0.165-0.208,0.248-0.31
	c0.085-0.104,0.17-0.207,0.256-0.31c0.086-0.104,0.174-0.206,0.261-0.309c0.088-0.104,0.175-0.207,0.265-0.31
	c0.09-0.104,0.183-0.207,0.275-0.31c0.091-0.103,0.182-0.207,0.275-0.31c0.094-0.104,0.192-0.206,0.288-0.309
	c0.096-0.104,0.191-0.208,0.288-0.31c0.099-0.104,0.199-0.207,0.299-0.309c0.101-0.104,0.201-0.208,0.303-0.31
	c0.104-0.104,0.207-0.207,0.311-0.31c0.105-0.104,0.212-0.207,0.318-0.31C69.097,51.145,69.204,51.041,69.313,50.939L69.313,50.939z
	"/>
</svg>
