<?xml version="1.0" encoding="utf-8"?>
<!DOCTYPE svg PUBLIC "-//W3C//DTD SVG 1.1//EN" "http://www.w3.org/Graphics/SVG/1.1/DTD/svg11.dtd">
<svg version="1.1" baseProfile="full"
 xmlns="http://www.w3.org/2000/svg"
 xmlns:xlink="http://www.w3.org/1999/xlink"
 xmlns:ev="http://www.w3.org/2001/xml-events" 
  height="36px" 
  width="36px" 
>
<path fill="rgb( 0, 93, 156 )"
 d="M32,36 C32,36 4,36 4,36 C1.791,36 0,34.209 0,32 C0,32 0,4 0,4 C0,1.791 1.791,0 4,0 C4,0 32,0 32,0 C34.209,0 36,1.791 36,4 C36,4 36,32 36,32 C36,34.209 34.209,36 32,36 ZM31.576,3.173 C29.77,2.136 27.491,2.81 26.483,4.669 C26.483,4.669 16.457,21.121 16.457,21.121 C16.457,21.121 9.93000000000001,14.011 9.93000000000001,14.011 C8.696,12.3 6.351,11.948 4.68799999999999,13.212 C3.02500000000001,14.482 2.678,16.897 3.90899999999999,18.609 C3.90899999999999,18.609 13.883,30.514 13.883,30.514 C15.116,32.226 17.462,32.583 19.121,31.319 C19.592,30.956 19.959,30.508 20.212,30.004 C20.212,30.004 33.029,8.411 33.029,8.411 C34.034,6.551 33.385,4.20399999999999 31.576,3.173 Z "/>
</svg>
