<?xml version="1.0" encoding="utf-8"?>
<!DOCTYPE svg PUBLIC "-//W3C//DTD SVG 1.1//EN" "http://www.w3.org/Graphics/SVG/1.1/DTD/svg11.dtd">
<svg version="1.1" baseProfile="full"
 xmlns="http://www.w3.org/2000/svg"
 xmlns:xlink="http://www.w3.org/1999/xlink"
 xmlns:ev="http://www.w3.org/2001/xml-events" 
  height="27px" 
  width="22px" 
>
<path fill="rgb( 0, 93, 156 )"
 d="M1.152,0 C1.152,0 20.847,0 20.847,0 C20.847,0 22,0 22,0 C22,0 22,1.128 22,1.128 C22,1.128 22,25.872 22,25.872 C22,25.872 22,27 22,27 C22,27 20.847,27 20.847,27 C20.847,27 6.948,27 6.948,27 C6.948,27 6.571,27 6.571,27 C6.571,27 6.263,26.775 6.263,26.775 C6.263,26.775 0.469,22.551 0.469,22.551 C0.469,22.551 0,22.211 0,22.211 C0,22.211 0,21.648 0,21.648 C0,21.648 0,1.128 0,1.128 C0,1.128 0,0 0,0 C0,0 1.152,0 1.152,0 C1.152,0 1.152,0 1.152,0 ZM2.306,20.499 C2.306,20.499 5.814,19.231 5.814,19.231 C5.814,19.231 6.313,19.051 6.313,19.051 C6.313,19.051 6.459,19.552 6.459,19.552 C6.459,19.552 7.972,24.742 7.972,24.742 C7.972,24.742 19.695,24.742 19.695,24.742 C19.695,24.742 19.695,2.258 19.695,2.258 C19.695,2.258 2.306,2.258 2.306,2.258 C2.306,2.258 2.306,20.499 2.306,20.499 C2.306,20.499 2.306,20.499 2.306,20.499 ZM6.844,24.393 C6.844,24.393 5.655,20.319 5.655,20.319 C5.655,20.319 2.713,21.382 2.713,21.382 C2.713,21.382 6.844,24.393 6.844,24.393 C6.844,24.393 6.844,24.393 6.844,24.393 ZM5.205,14.529 C5.205,14.529 5.205,15.467 5.205,15.467 C5.205,15.467 16.97,15.467 16.97,15.467 C16.97,15.467 16.97,14.529 16.97,14.529 C16.97,14.529 5.205,14.529 5.205,14.529 C5.205,14.529 5.205,14.529 5.205,14.529 ZM5.205,11.713 C5.205,11.713 5.205,12.651 5.205,12.651 C5.205,12.651 16.97,12.651 16.97,12.651 C16.97,12.651 16.97,11.713 16.97,11.713 C16.97,11.713 5.205,11.713 5.205,11.713 C5.205,11.713 5.205,11.713 5.205,11.713 ZM5.205,8.642 C5.205,8.642 5.205,9.58 5.205,9.58 C5.205,9.58 16.97,9.58 16.97,9.58 C16.97,9.58 16.97,8.642 16.97,8.642 C16.97,8.642 5.205,8.642 5.205,8.642 C5.205,8.642 5.205,8.642 5.205,8.642 ZM5.205,5.827 C5.205,5.827 5.205,6.766 5.205,6.766 C5.205,6.766 16.97,6.766 16.97,6.766 C16.97,6.766 16.97,5.827 16.97,5.827 C16.97,5.827 5.205,5.827 5.205,5.827 Z "/>
</svg>
