<?xml version="1.0" encoding="utf-8"?>
<!DOCTYPE svg PUBLIC "-//W3C//DTD SVG 1.1//EN" "http://www.w3.org/Graphics/SVG/1.1/DTD/svg11.dtd">
<svg version="1.1" baseProfile="full"
 xmlns="http://www.w3.org/2000/svg"
 xmlns:xlink="http://www.w3.org/1999/xlink"
 xmlns:ev="http://www.w3.org/2001/xml-events" 
  height="32px" 
  width="37px" 
>
<path fill="rgb( 255, 255, 255 )"
 d="M0,32 C0,32 0,27 0,27 C0,27 37,27 37,27 C37,27 37,32 37,32 C37,32 0,32 0,32 ZM0,18 C0,18 37,18 37,18 C37,18 37,23 37,23 C37,23 0,23 0,23 C0,23 0,18 0,18 ZM0,9 C0,9 37,9 37,9 C37,9 37,14 37,14 C37,14 0,14 0,14 C0,14 0,9 0,9 ZM0,0 C0,0 37,0 37,0 C37,0 37,5 37,5 C37,5 0,5 0,5 C0,5 0,0 0,0 Z "/>
</svg>
