<?xml version="1.0" encoding="utf-8"?>
<!DOCTYPE svg PUBLIC "-//W3C//DTD SVG 1.1//EN" "http://www.w3.org/Graphics/SVG/1.1/DTD/svg11.dtd">
<svg version="1.1" baseProfile="full"
 xmlns="http://www.w3.org/2000/svg"
 xmlns:xlink="http://www.w3.org/1999/xlink"
 xmlns:ev="http://www.w3.org/2001/xml-events" 
  height="184px" 
  width="121px" 
>
<path stroke="rgb( 34, 60, 106 )" stroke-width="6.25px" stroke-linecap="butt" stroke-linejoin="miter" fill="none"
 d="M62.8510000000001,85.518 C62.8510000000001,92.1279999999999 64.0809999999999,97.481 70.7239999999999,97.481 C70.7239999999999,97.481 107.384,97.481 107.384,97.481 C114.018,97.481 115.252,92.1279999999999 115.252,85.518 C115.252,78.9169999999999 114.018,73.5609999999999 107.384,73.5609999999999 C107.384,73.5609999999999 70.7239999999999,73.5609999999999 70.7239999999999,73.5609999999999 C64.0809999999999,73.5609999999999 62.8510000000001,78.9169999999999 62.8510000000001,85.518 M56.193,113.867 C56.193,120.476 57.433,125.836 64.0650000000001,125.836 C64.0650000000001,125.836 113.122,125.836 113.122,125.836 C119.761,125.836 120.999,120.476 120.999,113.867 C120.999,107.265 119.761,101.91 113.122,101.91 C113.122,101.91 64.0650000000001,101.91 64.0650000000001,101.91 C57.433,101.91 56.193,107.265 56.193,113.867 M62.758,142.652 C62.758,149.253 63.9960000000001,154.604 70.626,154.604 C70.626,154.604 109.323,154.604 109.323,154.604 C115.965,154.604 117.203,149.253 117.203,142.652 C117.203,136.042 115.965,130.691 109.323,130.691 C109.323,130.691 70.626,130.691 70.626,130.691 C63.9960000000001,130.691 62.758,136.042 62.758,142.652 M69.1479999999999,172.038 C69.1479999999999,178.643 70.3820000000001,183.994 77.0160000000001,183.994 C77.0160000000001,183.994 99.0599999999999,183.994 99.0599999999999,183.994 C105.698,183.994 106.932,178.643 106.932,172.038 C106.932,165.428 105.698,160.077 99.0599999999999,160.077 C99.0599999999999,160.077 77.0160000000001,160.077 77.0160000000001,160.077 C70.3820000000001,160.077 69.1479999999999,165.428 69.1479999999999,172.038 M66.0889999999999,182.521 C64.741,179.955 64.1379999999999,176.723 64.1379999999999,172.038 C64.1379999999999,167.349 64.741,164.113 66.0889999999999,161.555 C66.5530000000001,160.662 67.193,159.72 68.056,158.855 C63.373,158.25 60.9390000000001,155.497 59.701,153.135 C58.3489999999999,150.573 57.749,147.345 57.749,142.652 C57.749,137.967 58.3489999999999,134.727 59.701,132.169 C60.068,131.467 60.5419999999999,130.732 61.1469999999999,130.033 C56.6900000000001,129.335 54.346,126.656 53.136,124.358 C51.787,121.792 51.1859999999999,118.56 51.1859999999999,113.867 C51.1859999999999,109.177 51.787,105.95 53.136,103.384 C54.326,101.127 56.6099999999999,98.5039999999999 60.9190000000001,97.7529999999999 C60.4649999999999,97.172 60.088,96.5799999999999 59.7929999999999,96.0070000000001 C58.441,93.4469999999999 57.8399999999999,90.211 57.8399999999999,85.518 C57.8399999999999,80.829 58.441,77.5989999999999 59.7929999999999,75.037 C61.194,72.364 64.1220000000001,69.1849999999999 70.117,69.1849999999999 C70.117,69.1849999999999 77.586,69.1849999999999 77.586,69.1849999999999 C78.3510000000001,63.643 93.77,51.79 93.77,27.556 C93.77,0.99000000000001 65.376,4.05899999999997 65.376,4.05899999999997 C65.376,4.05899999999997 65.376,20.5509999999999 65.376,20.5509999999999 C60.3979999999999,38.9259999999999 27.3309999999999,67.3050000000001 17.973,75.05 C6.88499999999999,80.6790000000001 0,91.6790000000001 0,105.252 C0,105.252 0,145.681 0,145.681 C0,166.614 17.048,183.568 38.0740000000001,183.568 C38.0740000000001,183.568 66.712,183.568 66.712,183.568 C66.4760000000001,183.219 66.2639999999999,182.862 66.0889999999999,182.521  "/>
</svg>
