<?xml version="1.0" encoding="utf-8"?>
<!DOCTYPE svg PUBLIC "-//W3C//DTD SVG 1.1//EN" "http://www.w3.org/Graphics/SVG/1.1/DTD/svg11.dtd">
<svg version="1.1" baseProfile="full"
 xmlns="http://www.w3.org/2000/svg"
 xmlns:xlink="http://www.w3.org/1999/xlink"
 xmlns:ev="http://www.w3.org/2001/xml-events" 
  height="31px" 
  width="31px" 
>
<path fill="rgb( 255, 255, 255 )"
 d="M17.081,4.32 C17.494,4.378 17.903,4.459 18.303,4.561 C18.303,4.561 19.926,2.404 19.926,2.404 C20.51,1.628 21.418,1.169 22.287,1.596 C22.287,1.596 22.289,1.597 22.289,1.597 C23.161,2.024 23.32,3.014 23.096,3.958 C23.096,3.958 22.482,6.532 22.482,6.532 C22.476,6.558 22.468,6.585 22.46,6.61 C22.618,6.735 22.775,6.864 22.927,6.997 C23.086,7.137 23.242,7.28 23.393,7.429 C23.393,7.429 25.882,6.371 25.882,6.371 C26.775,5.991 27.789,6.048 28.332,6.853 C28.332,6.853 28.332,6.853 28.332,6.853 C28.871,7.659 28.517,8.597 27.848,9.302 C27.848,9.302 26.03,11.224 26.03,11.224 C26.014,11.243 25.994,11.262 25.975,11.278 C26.128,11.661 26.262,12.055 26.374,12.457 C26.374,12.457 29.056,12.786 29.056,12.786 C30.02,12.903 30.87,13.459 30.935,14.427 C30.935,14.427 30.935,14.427 30.935,14.427 C31,15.396 30.223,16.03 29.294,16.307 C29.294,16.307 26.758,17.062 26.758,17.062 C26.732,17.07 26.707,17.076 26.681,17.081 C26.622,17.495 26.541,17.904 26.439,18.302 C26.439,18.302 28.595,19.926 28.595,19.926 C29.373,20.51 29.831,21.417 29.404,22.288 C29.404,22.288 29.404,22.288 29.404,22.288 C28.977,23.16 27.986,23.32 27.041,23.095 C27.041,23.095 24.467,22.482 24.467,22.482 C24.442,22.475 24.416,22.467 24.389,22.459 C24.265,22.618 24.137,22.773 24.003,22.927 C23.863,23.086 23.72,23.242 23.57,23.393 C23.57,23.393 24.629,25.881 24.629,25.881 C25.009,26.774 24.951,27.79 24.147,28.33 C24.147,28.33 24.147,28.33 24.147,28.33 C23.342,28.871 22.401,28.516 21.697,27.849 C21.697,27.849 19.777,26.031 19.777,26.031 C19.757,26.012 19.737,25.993 19.721,25.974 C19.34,26.127 18.946,26.261 18.541,26.374 C18.541,26.374 18.214,29.055 18.214,29.055 C18.096,30.018 17.541,30.869 16.573,30.935 C16.573,30.935 16.573,30.935 16.573,30.935 C15.605,31 14.972,30.223 14.692,29.293 C14.692,29.293 13.937,26.758 13.937,26.758 C13.929,26.732 13.925,26.706 13.919,26.68 C13.504,26.622 13.097,26.54 12.697,26.439 C12.697,26.439 11.074,28.595 11.074,28.595 C10.489,29.372 9.584,29.831 8.711,29.403 C8.711,29.403 8.711,29.403 8.711,29.403 C7.841,28.975 7.68,27.986 7.904,27.041 C7.904,27.041 8.518,24.467 8.518,24.467 C8.524,24.441 8.532,24.414 8.541,24.389 C8.382,24.265 8.227,24.136 8.073,24.002 C7.914,23.863 7.758,23.719 7.607,23.57 C7.607,23.57 5.118,24.629 5.118,24.629 C4.224,25.008 3.209,24.952 2.67,24.147 C2.67,24.147 2.67,24.147 2.67,24.147 C2.127,23.34 2.485,22.402 3.15,21.697 C3.15,21.697 4.968,19.776 4.968,19.776 C4.988,19.756 5.008,19.737 5.027,19.722 C4.872,19.338 4.74,18.944 4.626,18.542 C4.626,18.542 1.946,18.214 1.946,18.214 C0.982,18.096 0.132,17.541 0.065,16.572 C0.065,16.572 0.065,16.572 0.065,16.572 C0,15.603 0.777,14.97 1.706,14.692 C1.706,14.692 4.242,13.937 4.242,13.937 C4.268,13.929 4.295,13.923 4.319,13.918 C4.378,13.504 4.458,13.096 4.561,12.697 C4.561,12.697 2.402,11.073 2.402,11.073 C1.627,10.489 1.171,9.582 1.596,8.711 C1.596,8.711 1.596,8.711 1.596,8.711 C2.025,7.84 3.014,7.68 3.959,7.904 C3.959,7.904 6.531,8.518 6.531,8.518 C6.558,8.524 6.586,8.532 6.611,8.541 C6.735,8.382 6.865,8.226 6.999,8.073 C7.136,7.914 7.282,7.758 7.43,7.606 C7.43,7.606 6.371,5.118 6.371,5.118 C5.991,4.225 6.046,3.21 6.853,2.669 C6.853,2.669 6.853,2.669 6.853,2.669 C7.66,2.128 8.597,2.484 9.303,3.15 C9.303,3.15 11.225,4.968 11.225,4.968 C11.245,4.987 11.261,5.007 11.28,5.026 C11.662,4.872 12.055,4.738 12.457,4.626 C12.457,4.626 12.786,1.944 12.786,1.944 C12.904,0.981 13.46,0.13 14.429,0.065 C14.429,0.065 14.429,0.065 14.429,0.065 C15.397,0 16.03,0.776 16.306,1.706 C16.306,1.706 17.063,4.241 17.063,4.241 C17.069,4.268 17.077,4.293 17.081,4.32 C17.081,4.32 17.081,4.32 17.081,4.32 ZM20.178,10.145 C18.806,8.949 16.979,8.274 15.021,8.407 C13.063,8.539 11.343,9.452 10.145,10.823 C8.949,12.193 8.274,14.02 8.408,15.979 C8.538,17.938 9.454,19.658 10.824,20.855 C12.193,22.051 14.019,22.726 15.979,22.593 C17.939,22.46 19.659,21.548 20.855,20.177 C22.051,18.807 22.726,16.979 22.594,15.02 C22.46,13.062 21.547,11.342 20.178,10.145 Z "/>
</svg>
