<?xml version="1.0" encoding="utf-8"?>
<!DOCTYPE svg PUBLIC "-//W3C//DTD SVG 1.1//EN" "http://www.w3.org/Graphics/SVG/1.1/DTD/svg11.dtd">
<svg version="1.1" baseProfile="full"
 xmlns="http://www.w3.org/2000/svg"
 xmlns:xlink="http://www.w3.org/1999/xlink"
 xmlns:ev="http://www.w3.org/2001/xml-events" 
  height="22px" 
  width="35px" 
>
<path fill="rgb( 255, 255, 255 )"
 d="M2.949,0 C2.949,0 32.051,0 32.051,0 C32.452,0 32.834,0.079 33.185,0.225 C33.185,0.225 17.488,12.193 17.488,12.193 C17.488,12.193 1.545,0.353 1.545,0.353 C1.963,0.128 2.441,0 2.949,0 C2.949,0 2.949,0 2.949,0 ZM0,19.133 C0.006,19.469 0.072,19.793 0.185,20.094 C0.185,20.094 11.975,11.535 11.975,11.535 C11.975,11.535 0.012,2.652 0.012,2.652 C0.004,2.74 0,2.829 0,2.92 C0,2.92 0,16.149 0,19.133 ZM34.944,2.355 C34.944,2.355 23.1,11.387 23.1,11.387 C23.1,11.387 34.87,19.933 34.87,19.933 C34.954,19.662 35,19.376 35,19.079 C35,19.079 35,2.92 35,2.92 C35,2.727 34.982,2.538 34.944,2.355 C34.944,2.355 34.944,2.355 34.944,2.355 ZM32.86,21.888 C32.603,21.961 32.331,22 32.051,22 C32.051,22 2.949,22 2.949,22 C2.744,22 2.543,21.978 2.347,21.938 C2.347,21.938 14.299,13.261 14.299,13.261 C14.299,13.261 16.667,15.02 16.667,15.02 C16.667,15.02 17.512,15.648 17.512,15.648 C17.512,15.648 18.349,15.009 18.349,15.009 C18.349,15.009 20.806,13.135 20.806,13.135 C20.806,13.135 32.86,21.888 32.86,21.888 Z "/>
</svg>
