<?xml version="1.0" encoding="utf-8"?>
<!DOCTYPE svg PUBLIC "-//W3C//DTD SVG 1.1//EN" "http://www.w3.org/Graphics/SVG/1.1/DTD/svg11.dtd">
<svg version="1.1" baseProfile="full"
 xmlns="http://www.w3.org/2000/svg"
 xmlns:xlink="http://www.w3.org/1999/xlink"
 xmlns:ev="http://www.w3.org/2001/xml-events" 
  height="42px" 
  width="47px" 
>
<path fill="rgb( 149, 149, 149 )"
 d="M9.62,41.002 C9.143,41.002 8.869,40.983 8.825,40.983 C8.825,40.983 14.036,36.657 15.217,30.668 C7.19199999999999,28.464 1.09,23.254 0.995,16.413 C1.208,7.256 11.786,1.023 23.991,0.994 C36.191,1.023 46.775,7.256 46.987,16.413 C46.878,23.767 39.859,29.233 30.928,31.11 C22.613,40.236 12.598,41.002 9.68300000000001,41.002 C9.68300000000001,41.002 9.62,41.002 9.62,41.002 ZM10.103,8.318 C6.627,10.568 4.753,13.443 4.75700000000001,16.413 C4.66200000000001,21.103 9.812,25.845 17.778,27.535 C17.778,27.535 19.413,27.884 19.413,27.884 C19.413,27.884 19.245,29.495 19.245,29.495 C19.106,31.209 18.461,33.801 16.641,36.168 C20.234,35.008 24.587,32.731 28.49,28.273 C28.49,28.273 28.914,27.784 28.914,27.784 C28.914,27.784 29.561,27.662 29.561,27.662 C37.875,26.104 43.331,21.235 43.224,16.413 C43.228,13.443 41.351,10.568 37.879,8.318 C34.427,6.08799999999999 29.484,4.63800000000001 23.991,4.64400000000001 C23.991,4.64400000000001 23.949,4.64400000000001 23.949,4.64400000000001 C18.473,4.64400000000001 13.547,6.096 10.103,8.318 M14.5,14 C15.881,14 17,15.119 17,16.5 C17,17.881 15.881,19 14.5,19 C13.119,19 12,17.881 12,16.5 C12,15.119 13.119,14 14.5,14 ZM24.5,14 C25.881,14 27,15.119 27,16.5 C27,17.881 25.881,19 24.5,19 C23.119,19 22,17.881 22,16.5 C22,15.119 23.119,14 24.5,14 ZM33.5,14 C34.881,14 36,15.119 36,16.5 C36,17.881 34.881,19 33.5,19 C32.119,19 31,17.881 31,16.5 C31,15.119 32.119,14 33.5,14 Z "/>
</svg>
