<?xml version="1.0" encoding="utf-8"?>
<!DOCTYPE svg PUBLIC "-//W3C//DTD SVG 1.1//EN" "http://www.w3.org/Graphics/SVG/1.1/DTD/svg11.dtd">
<svg version="1.1" baseProfile="full"
 xmlns="http://www.w3.org/2000/svg"
 xmlns:xlink="http://www.w3.org/1999/xlink"
 xmlns:ev="http://www.w3.org/2001/xml-events" 
  height="43px" 
  width="44px" 
>
<path fill="rgb( 185, 185, 185 )"
 d="M29.751,5.869 C30.122,7.335 30.158,7.457 30.124,8.963 C30.11,9.543 29.771,12.227 29.863,13.05 C29.939,13.728 30.111,13.783 30.384,14.342 C30.858,15.315 30.699,16.658 30.517,17.64 C30.417,18.177 30.207,18.941 29.887,19.379 C29.534,19.863 28.828,19.866 28.517,20.43 C28.067,21.242 28.321,22.382 28.037,23.259 C27.715,24.253 26.895,24.322 26.834,25.624 C27.236,25.679 27.637,25.736 28.037,25.792 C28.44,26.632 29.177,28.323 29.929,28.832 C30.559,29.002 31.189,29.171 31.82,29.339 C34.029,30.23 36.483,31.294 38.697,32.211 C40.713,33.047 43.126,33.346 43.854,35.422 C43.854,36.832 43.99,40.163 43.953,42.012 C43.953,42.012 0.044,42.012 0.044,42.012 C0.007,40.163 0.142,36.832 0.142,35.422 C0.87,33.346 3.284,33.047 5.299,32.211 C7.513,31.294 9.968,30.23 12.176,29.339 C12.807,29.171 13.438,29.002 14.068,28.832 C14.82,28.323 15.557,26.632 15.958,25.792 C15.958,25.792 16.853,25.579 16.853,25.579 C16.651,24.468 15.951,24.381 15.659,23.596 C15.545,22.413 15.431,21.23 15.316,20.048 C15.32,20.103 14.493,19.899 14.384,19.832 C13.217,19.113 13.193,16.193 13.081,14.98 C13.03,14.424 13.815,13.969 13.596,12.951 C12.317,6.993 14.151,4.204 17.047,3.279 C19.058,2.478 22.816,0.993 26.319,3.111 C26.319,3.111 27.188,3.902 27.188,3.902 C27.188,3.902 28.595,4.141 28.595,4.141 C29.301,4.542 29.751,5.869 29.751,5.869  "/>
</svg>
