<?xml version="1.0" encoding="utf-8"?>
<!DOCTYPE svg PUBLIC "-//W3C//DTD SVG 1.1//EN" "http://www.w3.org/Graphics/SVG/1.1/DTD/svg11.dtd">
<svg version="1.1" baseProfile="full"
 xmlns="http://www.w3.org/2000/svg"
 xmlns:xlink="http://www.w3.org/1999/xlink"
 xmlns:ev="http://www.w3.org/2001/xml-events" 
  height="43px" 
  width="44px" 
>
<path fill="rgb( 255, 255, 255 )"
 d="M29.755,5.864 C30.126,7.33 30.162,7.452 30.128,8.958 C30.114,9.539 29.775,12.222 29.867,13.045 C29.943,13.724 30.115,13.778 30.388,14.337 C30.861,15.311 30.703,16.653 30.521,17.635 C30.421,18.172 30.211,18.936 29.89,19.375 C29.538,19.858 28.832,19.861 28.521,20.425 C28.071,21.237 28.325,22.377 28.041,23.254 C27.719,24.248 26.899,24.317 26.838,25.619 C27.24,25.674 27.641,25.731 28.041,25.787 C28.444,26.627 29.181,28.318 29.933,28.827 C30.563,28.997 31.193,29.166 31.823,29.335 C34.033,30.225 36.487,31.289 38.7,32.206 C40.717,33.043 43.129,33.341 43.858,35.417 C43.858,36.827 43.994,40.158 43.957,42.007 C43.957,42.007 0.048,42.007 0.048,42.007 C0.011,40.158 0.145,36.827 0.145,35.417 C0.874,33.341 3.288,33.043 5.303,32.206 C7.517,31.289 9.972,30.225 12.18,29.335 C12.81,29.166 13.441,28.997 14.072,28.827 C14.824,28.318 15.561,26.627 15.962,25.787 C15.962,25.787 16.857,25.574 16.857,25.574 C16.655,24.463 15.954,24.376 15.663,23.591 C15.549,22.408 15.435,21.225 15.32,20.043 C15.324,20.098 14.497,19.894 14.388,19.827 C13.221,19.108 13.197,16.188 13.085,14.975 C13.034,14.419 13.819,13.965 13.6,12.947 C12.321,6.988 14.154,4.199 17.051,3.274 C19.062,2.473 22.82,0.988 26.323,3.106 C26.323,3.106 27.192,3.897 27.192,3.897 C27.192,3.897 28.599,4.136 28.599,4.136 C29.305,4.537 29.755,5.864 29.755,5.864  "/>
</svg>
