<?xml version="1.0" encoding="utf-8"?>
<!DOCTYPE svg PUBLIC "-//W3C//DTD SVG 1.1//EN" "http://www.w3.org/Graphics/SVG/1.1/DTD/svg11.dtd">
<svg version="1.1" baseProfile="full"
 xmlns="http://www.w3.org/2000/svg"
 xmlns:xlink="http://www.w3.org/1999/xlink"
 xmlns:ev="http://www.w3.org/2001/xml-events" 
  height="38px" 
  width="54px" 
>
<path fill="rgb( 185, 185, 185 )"
 d="M33.146,28.653 C31.306,27.872 29.267,26.965 27.431,26.205 C26.907,26.062 26.383,25.918 25.859,25.774 C25.233,25.34 24.622,23.9 24.288,23.183 C23.954,23.135 23.621,23.088 23.287,23.039 C23.338,21.931 24.02,21.872 24.288,21.026 C24.523,20.278 24.312,19.307 24.686,18.616 C24.945,18.136 25.532,18.133 25.824,17.721 C26.091,17.347 26.266,16.695 26.347,16.238 C26.5,15.403 26.631,14.258 26.237,13.429 C26.01,12.953 25.868,12.906 25.805,12.329 C25.727,11.628 26.01,9.341 26.022,8.846 C26.051,7.564 26.018,6.403 25.712,5.154 C25.712,5.154 25.337,4.023 24.751,3.681 C24.751,3.681 23.582,3.478 23.582,3.478 C23.582,3.478 22.859,2.804 22.859,2.804 C19.947,0.999 16.825,2.265 15.154,2.947 C12.745,3.736 11.222,7.168 12.284,12.245 C12.467,13.111 11.814,13.499 11.856,13.972 C11.949,15.007 11.969,17.494 12.94,18.106 C13.03,18.164 13.718,18.337 13.715,18.29 C13.81,19.297 13.904,20.305 13.999,21.313 C14.242,21.982 14.823,22.055 14.993,23.001 C14.993,23.001 14.248,23.183 14.248,23.183 C13.914,23.9 13.302,25.34 12.676,25.774 C12.153,25.918 11.629,26.062 11.104,26.205 C9.269,26.965 7.229,27.872 5.39,28.653 C3.714,29.366 1.708,29.618 1.102,31.388 C1.102,32.589 0.991,35.426 1.021,37.001 C1.021,37.001 37.515,37.001 37.515,37.001 C37.545,35.426 37.434,32.589 37.434,31.388 C36.827,29.618 34.822,29.366 33.146,28.653 M43.472,28.489 C42.16,27.933 40.707,27.286 39.398,26.745 C39.025,26.643 38.651,26.54 38.278,26.438 C37.832,26.129 37.395,25.101 37.157,24.591 C36.92,24.557 36.682,24.523 36.444,24.489 C36.48,23.699 36.966,23.656 37.157,23.053 C37.325,22.52 37.174,21.829 37.442,21.335 C37.626,20.993 38.044,20.992 38.253,20.699 C38.443,20.431 38.568,19.967 38.626,19.641 C38.734,19.044 38.827,18.229 38.547,17.638 C38.385,17.298 38.284,17.265 38.239,16.853 C38.184,16.354 38.384,14.724 38.393,14.372 C38.413,13.457 38.392,12.63 38.172,11.74 C38.172,11.74 37.906,10.933 37.487,10.69 C37.487,10.69 36.654,10.547 36.654,10.547 C36.654,10.547 36.138,10.065 36.138,10.065 C34.063,8.779 31.837,9.681 30.647,10.167 C28.93,10.728 27.843,13.176 28.602,16.794 C28.731,17.412 28.266,17.688 28.297,18.025 C28.363,18.762 28.376,20.535 29.068,20.972 C29.132,21.013 29.623,21.136 29.62,21.103 C29.688,21.821 29.756,22.539 29.824,23.257 C29.996,23.734 30.411,23.787 30.531,24.46 C30.531,24.46 30.002,24.591 30.002,24.591 C29.832,24.955 29.56,25.578 29.258,26.019 C29.917,26.301 30.584,26.588 31.24,26.873 C32.005,27.205 32.764,27.533 33.492,27.841 C33.839,27.989 34.202,28.116 34.587,28.251 C36.025,28.753 37.656,29.322 38.265,31.1 C38.265,31.1 38.313,31.239 38.313,31.239 C38.313,31.239 38.313,31.388 38.313,31.388 C38.313,31.85 38.33,32.588 38.349,33.37 C38.357,33.718 38.366,34.08 38.374,34.441 C38.374,34.441 46.585,34.441 46.585,34.441 C46.608,33.319 46.527,31.295 46.527,30.439 C46.096,29.178 44.666,28.997 43.472,28.489 M52.95,29.3 C52.649,28.421 51.65,28.294 50.818,27.941 C49.902,27.552 48.887,27.101 47.974,26.722 C47.714,26.652 47.453,26.58 47.193,26.508 C46.882,26.293 46.578,25.576 46.411,25.219 C46.245,25.196 46.079,25.172 45.914,25.148 C45.939,24.597 46.277,24.568 46.411,24.146 C46.527,23.774 46.423,23.292 46.61,22.947 C46.737,22.708 47.03,22.707 47.175,22.501 C47.307,22.317 47.395,21.993 47.436,21.764 C47.511,21.349 47.576,20.781 47.38,20.367 C47.266,20.131 47.197,20.107 47.166,19.82 C47.127,19.471 47.266,18.334 47.273,18.088 C47.288,17.451 47.272,16.873 47.119,16.25 C47.119,16.25 46.932,15.688 46.641,15.519 C46.641,15.519 46.059,15.419 46.059,15.419 C46.059,15.419 45.701,15.083 45.701,15.083 C44.251,14.185 42.699,14.813 41.868,15.154 C40.669,15.545 39.911,17.252 40.44,19.777 C40.531,20.21 40.206,20.402 40.227,20.638 C40.273,21.152 40.283,22.389 40.766,22.694 C40.811,22.723 41.154,22.809 41.151,22.785 C41.199,23.286 41.247,23.788 41.294,24.288 C41.413,24.622 41.703,24.658 41.786,25.129 C41.786,25.129 41.417,25.219 41.417,25.219 C41.277,25.522 41.036,26.078 40.777,26.374 C41.248,26.576 41.725,26.782 42.195,26.986 C42.743,27.222 43.285,27.457 43.806,27.679 C44.046,27.78 44.301,27.869 44.571,27.964 C45.597,28.322 46.874,28.767 47.348,30.152 C47.348,30.152 47.395,30.291 47.395,30.291 C47.395,30.291 47.395,30.439 47.395,30.439 C47.395,30.765 47.408,31.287 47.422,31.841 C47.423,31.924 47.425,32.008 47.427,32.092 C47.427,32.092 52.991,32.092 52.991,32.092 C53.006,31.31 52.95,29.898 52.95,29.3  "/>
</svg>
