<?xml version="1.0" encoding="utf-8"?>
<!-- Generator: Adobe Illustrator 15.0.0, SVG Export Plug-In . SVG Version: 6.00 Build 0)  -->
<!DOCTYPE svg PUBLIC "-//W3C//DTD SVG 1.1//EN" "http://www.w3.org/Graphics/SVG/1.1/DTD/svg11.dtd">
<svg version="1.1" id="图层_1" xmlns:ev="http://www.w3.org/2001/xml-events"
	 xmlns="http://www.w3.org/2000/svg" xmlns:xlink="http://www.w3.org/1999/xlink" x="0px" y="0px" width="53px" height="37px"
	 viewBox="0 0 53 37" enable-background="new 0 0 53 37" xml:space="preserve">
<path fill="#666666" d="M17.342,13.49c-0.059-0.654,0.211-1.148,0.374-1.445c0.03-0.058,0.072-0.132,0.091-0.177
	c-0.138-0.659-0.236-1.287-0.3-1.891L16.67,9.832l-0.533-0.494c-2.148-1.322-4.451-0.394-5.684,0.105
	c-1.778,0.578-2.9,3.091-2.117,6.809c0.135,0.635-0.347,0.919-0.315,1.266c0.068,0.758,0.082,2.58,0.799,3.029
	c0.066,0.041,0.573,0.168,0.571,0.135l0.211,2.213c0.178,0.49,0.608,0.545,0.732,1.236l-0.55,0.135
	c-0.246,0.524-0.697,1.58-1.16,1.897c-0.386,0.104-0.772,0.21-1.158,0.315c-1.355,0.557-2.859,1.221-4.217,1.793
	c-1.236,0.521-2.715,0.707-3.162,2.002c0,0.881-0.084,2.959-0.061,4.111h6.117c0.008-0.376,0.016-0.753,0.025-1.117
	c0.019-0.797,0.037-1.552,0.037-2.02v-0.252l0.083-0.239c0.727-2.106,2.641-2.771,4.18-3.302c0.388-0.135,0.756-0.262,1.096-0.404
	c0.747-0.316,1.525-0.65,2.311-0.988c1.156-0.498,2.348-1.008,3.468-1.471c-0.056-0.121-0.108-0.234-0.152-0.326
	c-0.247-0.035-0.491-0.072-0.738-0.106c0.038-0.812,0.541-0.854,0.738-1.474c0.174-0.549,0.018-1.26,0.294-1.766
	c0.192-0.352,0.624-0.355,0.84-0.654c0.196-0.275,0.326-0.754,0.386-1.088c0.034-0.18,0.064-0.379,0.085-0.587
	c-1.174-1.082-1.321-3.184-1.418-4.62C17.365,13.79,17.355,13.628,17.342,13.49 M52.913,30.273c-0.447-1.295-1.927-1.48-3.162-2.002
	c-1.356-0.572-2.862-1.236-4.217-1.793c-0.386-0.105-0.772-0.211-1.159-0.315c-0.461-0.317-0.913-1.373-1.16-1.897l-0.738-0.106
	c0.039-0.812,0.541-0.854,0.738-1.474c0.174-0.549,0.02-1.26,0.294-1.766c0.191-0.352,0.624-0.355,0.841-0.654
	c0.196-0.275,0.325-0.754,0.387-1.088c0.111-0.612,0.207-1.451-0.084-2.059c-0.166-0.348-0.271-0.382-0.317-0.805
	c-0.058-0.513,0.151-2.188,0.16-2.55c0.021-0.94-0.003-1.789-0.229-2.703c0,0-0.277-0.83-0.709-1.08l-0.863-0.149l-0.532-0.494
	c-2.149-1.322-4.451-0.394-5.685,0.105c-0.686,0.222-1.272,0.738-1.691,1.496c-0.014,0.251-0.02,0.457-0.008,0.561
	c0.007,0.055,0.013,0.088,0.015,0.103c0.015,0.028,0.032,0.054,0.049,0.085c0.063,0.106,0.149,0.254,0.245,0.456
	c0.605,1.264,0.428,2.778,0.239,3.808c-0.093,0.508-0.319,1.461-0.8,2.132c-0.125,0.175-0.266,0.316-0.404,0.434
	c0.077,0.802,0.24,1.727,0.722,2.029c0.067,0.041,0.574,0.168,0.572,0.135c0.069,0.737,0.14,1.475,0.21,2.213
	c0.18,0.49,0.609,0.545,0.732,1.236l-0.549,0.135c-0.043,0.09-0.093,0.199-0.147,0.316c1.126,0.464,2.325,0.979,3.487,1.479
	c0.787,0.338,1.568,0.674,2.315,0.99c0.341,0.143,0.708,0.27,1.097,0.404c1.539,0.531,3.453,1.195,4.18,3.302l0.083,0.239v0.252
	c0,0.468,0.018,1.223,0.038,2.02c0.007,0.364,0.017,0.741,0.025,1.117h6.088C52.996,33.232,52.913,31.154,52.913,30.273
	 M33.184,4.272c0.318,1.283,0.351,2.476,0.32,3.793c-0.012,0.509-0.304,2.858-0.225,3.578c0.064,0.594,0.214,0.642,0.449,1.132
	c0.406,0.852,0.27,2.027,0.113,2.887c-0.085,0.47-0.266,1.139-0.542,1.522c-0.303,0.424-0.909,0.427-1.178,0.921
	c-0.388,0.71-0.169,1.708-0.413,2.475c-0.277,0.87-0.982,0.932-1.035,2.07c0.346,0.049,0.689,0.099,1.035,0.147
	c0.346,0.736,0.98,2.218,1.628,2.661c0.541,0.148,1.083,0.297,1.626,0.445c1.9,0.779,4.01,1.711,5.915,2.514
	c1.735,0.732,3.81,0.993,4.437,2.811c0,1.234,0.117,4.15,0.086,5.768H7.628c-0.031-1.617,0.084-4.533,0.084-5.768
	c0.627-1.817,2.703-2.078,4.437-2.811c1.905-0.803,4.016-1.734,5.916-2.514c0.542-0.148,1.084-0.297,1.626-0.445
	c0.649-0.443,1.282-1.925,1.627-2.661l0.772-0.188c-0.176-0.971-0.777-1.045-1.029-1.734c-0.097-1.034-0.197-2.07-0.295-3.106
	c0.005,0.049-0.708-0.129-0.801-0.187c-1.005-0.631-1.025-3.186-1.122-4.249c-0.044-0.486,0.631-0.885,0.443-1.776
	c-1.1-5.215,0.477-8.743,2.97-9.553c1.73-0.701,4.961-2.001,7.975-0.147l0.748,0.693l1.209,0.208
	C32.796,3.109,33.184,4.272,33.184,4.272"/>
</svg>
