<?xml version="1.0" encoding="utf-8"?>
<!DOCTYPE svg PUBLIC "-//W3C//DTD SVG 1.1//EN" "http://www.w3.org/Graphics/SVG/1.1/DTD/svg11.dtd">
<svg version="1.1" baseProfile="full"
 xmlns="http://www.w3.org/2000/svg"
 xmlns:xlink="http://www.w3.org/1999/xlink"
 xmlns:ev="http://www.w3.org/2001/xml-events" 
  height="22px" 
  width="29px" 
>
<path fill="rgb( 255, 255, 255 )"
 d="M1.831,14.314 C3.328,13.738 4.825,13.163 6.322,12.587 C6.695,12.311 7.068,12.035 7.442,11.759 C7.442,11.759 9.772,16.382 9.772,16.382 C9.772,16.382 11.842,11.759 11.842,11.759 C12.226,12.04 12.611,12.323 12.995,12.605 C12.995,12.605 16.07,13.756 16.07,13.756 C16.108,13.647 16.15,13.55 16.195,13.468 C17.308,13.06 18.306,12.621 18.968,12.473 C19.644,14 20.673,15.115 21.921,15.978 C23.286,15.053 24.278,13.871 24.971,12.48 C25.681,12.604 26.593,12.872 27.342,13.035 C27.985,14.193 28.001,16.963 27.965,18.662 C27.965,18.662 18.444,18.662 18.444,18.662 C18.468,19.423 18.459,20.211 18.443,21.005 C12.667,21.005 6.892,21.005 1.116,21.005 C0.999,17.79 1.215,15.498 1.831,14.314 C1.831,14.314 1.831,14.314 1.831,14.314 ZM19.39,7.581 C20.733,7.76 23.314,7.499 24.39,7.029 C24.432,7.729 24.444,9.086 24.007,10.127 C23.8,10.619 23.494,11.008 23.178,11.309 C23.178,11.309 25.708,11.368 25.708,11.368 C25.708,11.368 25.455,9.346 25.531,8.822 C26.568,1.644 17.188,1.644 18.225,8.822 C18.301,9.346 18.049,11.368 18.049,11.368 C18.049,11.368 20.596,11.309 20.596,11.309 C20.28,11.008 19.974,10.618 19.768,10.127 C19.427,9.316 19.359,8.313 19.365,7.577 C19.365,7.577 19.39,7.581 19.39,7.581 C19.39,7.581 19.39,7.581 19.39,7.581 ZM6.422,8.579 C6.284,7.181 6.254,6.194 6.684,4.796 C8.315,3.811 10.307,5.401 12.708,4.854 C12.944,6.015 13.025,7.006 12.955,8.643 C12.955,8.643 13.889,7.849 14.019,7.17 C14.15,6.49 13.904,3.466 13.575,2.983 C12.253,1.043 7.384,0.981 5.937,2.652 C5.544,3.106 5.096,7.235 5.522,7.785 C5.947,8.336 6.422,8.579 6.422,8.579 Z "/>
</svg>
