<?xml version="1.0" encoding="utf-8"?>
<!-- Generator: Adobe Illustrator 15.0.0, SVG Export Plug-In . SVG Version: 6.00 Build 0)  -->
<!DOCTYPE svg PUBLIC "-//W3C//DTD SVG 1.1//EN" "http://www.w3.org/Graphics/SVG/1.1/DTD/svg11.dtd">
<svg version="1.1" id="图层_1" xmlns:ev="http://www.w3.org/2001/xml-events"
	 xmlns="http://www.w3.org/2000/svg" xmlns:xlink="http://www.w3.org/1999/xlink" x="0px" y="0px" width="31px" height="31px"
	 viewBox="0 0 31 31" enable-background="new 0 0 31 31" xml:space="preserve">
<path fill="#666666" d="M17.081,4.32c0.413,0.058,0.821,0.139,1.222,0.241l1.623-2.157c0.584-0.776,1.492-1.235,2.361-0.808
	l0.002,0.001c0.872,0.427,1.031,1.417,0.807,2.361l-0.613,2.574c-0.006,0.026-0.015,0.053-0.022,0.078
	c0.158,0.125,0.315,0.254,0.467,0.387c0.159,0.14,0.315,0.283,0.466,0.432l2.489-1.058c0.894-0.38,1.907-0.323,2.45,0.482l0,0
	c0.539,0.806,0.186,1.744-0.484,2.449l-1.818,1.922c-0.016,0.019-0.035,0.038-0.055,0.054c0.153,0.383,0.287,0.777,0.399,1.179
	l2.683,0.329c0.963,0.117,1.813,0.673,1.879,1.641l0,0c0.064,0.969-0.713,1.602-1.642,1.879l-2.536,0.756
	c-0.025,0.008-0.051,0.014-0.076,0.019c-0.06,0.414-0.141,0.823-0.242,1.222l2.156,1.623c0.777,0.584,1.235,1.491,0.809,2.362l0,0
	c-0.428,0.872-1.418,1.032-2.363,0.808l-2.574-0.613c-0.025-0.008-0.051-0.016-0.078-0.023c-0.123,0.159-0.252,0.314-0.386,0.469
	c-0.14,0.158-0.282,0.314-0.433,0.465l1.059,2.488c0.38,0.893,0.322,1.909-0.482,2.449l0,0c-0.805,0.541-1.746,0.186-2.449-0.48
	l-1.92-1.818c-0.021-0.02-0.041-0.038-0.057-0.057c-0.381,0.152-0.775,0.287-1.18,0.399l-0.327,2.681
	c-0.118,0.963-0.673,1.814-1.641,1.881l0,0c-0.968,0.064-1.601-0.713-1.881-1.643l-0.755-2.535
	c-0.008-0.025-0.012-0.052-0.018-0.078c-0.415-0.058-0.822-0.14-1.222-0.24l-1.623,2.156c-0.585,0.776-1.49,1.235-2.363,0.807l0,0
	c-0.87-0.428-1.031-1.416-0.807-2.361l0.614-2.574c0.006-0.025,0.014-0.053,0.023-0.078c-0.159-0.123-0.314-0.252-0.468-0.387
	c-0.159-0.139-0.315-0.283-0.466-0.432l-2.489,1.059c-0.894,0.379-1.909,0.323-2.448-0.482l0,0c-0.543-0.807-0.185-1.744,0.48-2.449
	l1.818-1.922c0.02-0.02,0.04-0.039,0.059-0.053c-0.155-0.385-0.287-0.779-0.401-1.181l-2.68-0.328
	c-0.964-0.118-1.814-0.673-1.881-1.642l0,0C0,15.603,0.777,14.97,1.706,14.692l2.536-0.755c0.026-0.008,0.053-0.014,0.077-0.019
	c0.059-0.414,0.139-0.822,0.242-1.221l-2.159-1.624c-0.775-0.584-1.231-1.491-0.806-2.362l0,0C2.025,7.84,3.014,7.68,3.959,7.904
	l2.572,0.614c0.027,0.006,0.055,0.014,0.08,0.023c0.124-0.159,0.254-0.315,0.388-0.468C7.136,7.914,7.282,7.758,7.43,7.606
	L6.371,5.118C5.991,4.225,6.046,3.21,6.853,2.669l0,0C7.66,2.128,8.597,2.484,9.303,3.15l1.922,1.818
	c0.02,0.019,0.036,0.039,0.055,0.058c0.382-0.154,0.775-0.288,1.177-0.4l0.329-2.682c0.118-0.963,0.674-1.814,1.643-1.879l0,0
	c0.968-0.065,1.6,0.711,1.877,1.641l0.756,2.535C17.068,4.268,17.077,4.293,17.081,4.32L17.081,4.32z M20.178,10.145
	c-1.371-1.196-3.199-1.871-5.157-1.738c-1.958,0.132-3.678,1.045-4.876,2.416c-1.196,1.37-1.871,3.197-1.737,5.156
	c0.13,1.958,1.046,3.679,2.416,4.876c1.369,1.195,3.195,1.871,5.155,1.738c1.96-0.134,3.68-1.046,4.876-2.416
	c1.195-1.371,1.871-3.199,1.738-5.158C22.46,13.062,21.547,11.342,20.178,10.145z"/>
</svg>
