<?xml version="1.0" encoding="utf-8"?>
<!DOCTYPE svg PUBLIC "-//W3C//DTD SVG 1.1//EN" "http://www.w3.org/Graphics/SVG/1.1/DTD/svg11.dtd">
<svg version="1.1" baseProfile="full"
 xmlns="http://www.w3.org/2000/svg"
 xmlns:xlink="http://www.w3.org/1999/xlink"
 xmlns:ev="http://www.w3.org/2001/xml-events" 
  height="29px" 
  width="39px" 
>
<path fill="rgb( 34, 60, 106 )"
 d="M1.201,19.31 C3.363,18.476 5.525,17.642 7.687,16.808 C8.227,16.408 8.766,16.008 9.305,15.609 C9.305,15.609 12.67,22.304 12.67,22.304 C12.67,22.304 15.661,15.609 15.661,15.609 C16.215,16.017 16.77,16.426 17.326,16.834 C17.326,16.834 21.767,18.501 21.767,18.501 C21.822,18.343 21.883,18.203 21.947,18.085 C23.556,17.494 24.996,16.858 25.953,16.643 C26.928,18.854 28.416,20.47 30.218,21.719 C32.19,20.38 33.623,18.667 34.623,16.654 C35.649,16.833 36.967,17.221 38.047,17.457 C38.976,19.134 39,23.146 38.948,25.606 C38.948,25.606 25.196,25.606 25.196,25.606 C25.23,26.708 25.218,27.85 25.194,29 C16.852,29 8.511,29 0.169,29 C0,24.344 0.311,21.024 1.201,19.31 C1.201,19.31 1.201,19.31 1.201,19.31 ZM26.563,9.559 C28.502,9.817 32.23,9.44 33.783,8.759 C33.845,9.772 33.862,11.738 33.231,13.246 C32.932,13.959 32.49,14.522 32.033,14.958 C32.033,14.958 35.687,15.043 35.687,15.043 C35.687,15.043 35.322,12.114 35.432,11.355 C36.93,0.96 23.382,0.96 24.88,11.355 C24.99,12.114 24.625,15.043 24.625,15.043 C24.625,15.043 28.304,14.958 28.304,14.958 C27.848,14.522 27.405,13.957 27.108,13.246 C26.616,12.071 26.517,10.618 26.527,9.553 C26.527,9.553 26.563,9.559 26.563,9.559 C26.563,9.559 26.563,9.559 26.563,9.559 ZM7.832,11.003 C7.632,8.979 7.59,7.549 8.21,5.525 C10.567,4.098 13.443,6.401 16.911,5.609 C17.252,7.291 17.369,8.726 17.268,11.097 C17.268,11.097 18.616,9.947 18.805,8.963 C18.994,7.978 18.639,3.599 18.164,2.899 C16.255,0.089 9.222,0 7.131,2.42 C6.565,3.077 5.917,9.057 6.531,9.853 C7.146,10.651 7.832,11.003 7.832,11.003 Z "/>
</svg>
