<?xml version="1.0" encoding="utf-8"?>
<!DOCTYPE svg PUBLIC "-//W3C//DTD SVG 1.1//EN" "http://www.w3.org/Graphics/SVG/1.1/DTD/svg11.dtd">
<svg version="1.1" baseProfile="full"
 xmlns="http://www.w3.org/2000/svg"
 xmlns:xlink="http://www.w3.org/1999/xlink"
 xmlns:ev="http://www.w3.org/2001/xml-events" 
  height="30px" 
  width="32px" 
>
<path stroke="rgb( 0, 0, 0 )" stroke-width="2px" stroke-linecap="butt" stroke-linejoin="miter" fill="none"
 d="M15.988,0.001 C15.988,0.001 21.257,9.42400000000001 21.257,9.42400000000001 C21.257,9.42400000000001 31.973,11.454 31.973,11.454 C31.973,11.454 24.513,19.308 24.513,19.308 C24.513,19.308 25.868,29.985 25.868,29.985 C25.868,29.985 15.988,25.415 15.988,25.415 C15.988,25.415 6.10899999999999,29.985 6.10899999999999,29.985 C6.10899999999999,29.985 7.46299999999999,19.308 7.46299999999999,19.308 C7.46299999999999,19.308 0.003,11.454 0.003,11.454 C0.003,11.454 10.72,9.42400000000001 10.72,9.42400000000001 C10.72,9.42400000000001 15.988,0.001 15.988,0.001  "/>
</svg>
