<?xml version="1.0" encoding="utf-8"?>
<!DOCTYPE svg PUBLIC "-//W3C//DTD SVG 1.1//EN" "http://www.w3.org/Graphics/SVG/1.1/DTD/svg11.dtd">
<svg version="1.1" baseProfile="full"
 xmlns="http://www.w3.org/2000/svg"
 xmlns:xlink="http://www.w3.org/1999/xlink"
 xmlns:ev="http://www.w3.org/2001/xml-events" 
  height="41px" 
  width="41px" 
>
<path fill="rgb( 34, 60, 106 )"
 d="M39.437,32.538 C39.437,32.538 39.431,32.543 39.431,32.543 C39.434,32.545 36.964,35.002 36.964,35.002 C36.964,35.002 28.22,26.284 28.22,26.284 C28.22,26.284 30.687,23.82 30.687,23.82 C31.223,23.291 32.084,23.28 32.623,23.817 C32.627,23.82 39.431,30.591 39.431,30.591 C39.431,30.591 39.431,30.598 39.431,30.598 C39.945,31.114 40.002,31.974 39.437,32.538 ZM13.376,26.676 C0.996,14.03 3.884,6.304 5.188,4.682 C5.188,4.682 14.132,13.586 14.132,13.586 C12.858,14.858 14.092,16.666 15.487,18.387 C17.476,20.845 19.772,23.023 21.763,24.642 C24.775,27.09 26.344,28.169 27.563,26.956 C27.563,26.956 36.283,35.651 36.283,35.651 C34.835,37.152 26.422,40.006 13.376,26.676 ZM17.275,10.456 C17.275,10.462 14.806,12.915 14.806,12.915 C14.806,12.915 5.869,4.003 5.869,4.003 C5.869,4.003 8.336,1.538 8.336,1.538 C8.869,1.01 9.732,0.997 10.271,1.537 C10.274,1.538 17.275,8.507 17.275,8.507 C17.275,8.507 17.275,8.516 17.275,8.516 C17.788,9.028 17.84,9.885 17.275,10.45 C17.275,10.45 17.275,10.456 17.275,10.456 Z "/>
</svg>
