<?xml version="1.0" encoding="utf-8"?>
<!DOCTYPE svg PUBLIC "-//W3C//DTD SVG 1.1//EN" "http://www.w3.org/Graphics/SVG/1.1/DTD/svg11.dtd">
<svg version="1.1" baseProfile="full"
 xmlns="http://www.w3.org/2000/svg"
 xmlns:xlink="http://www.w3.org/1999/xlink"
 xmlns:ev="http://www.w3.org/2001/xml-events" 
  height="46px" 
  width="30px" 
>
<path fill="rgb( 149, 149, 149 )"
 d="M16.037,21.317 C16.037,22.907 16.3339999999999,24.194 17.926,24.194 C17.926,24.194 26.717,24.194 26.717,24.194 C28.308,24.194 28.604,22.907 28.604,21.317 C28.604,19.729 28.308,18.44 26.717,18.44 C26.717,18.44 17.926,18.44 17.926,18.44 C16.3339999999999,18.44 16.037,19.729 16.037,21.317 M14.442,28.136 C14.442,29.724 14.739,31.014 16.329,31.014 C16.329,31.014 28.093,31.014 28.093,31.014 C29.6849999999999,31.014 29.982,29.724 29.982,28.136 C29.982,26.548 29.6849999999999,25.259 28.093,25.259 C28.093,25.259 16.329,25.259 16.329,25.259 C14.739,25.259 14.442,26.548 14.442,28.136 M16.016,35.06 C16.016,36.648 16.313,37.935 17.902,37.935 C17.902,37.935 27.182,37.935 27.182,37.935 C28.775,37.935 29.072,36.648 29.072,35.06 C29.072,33.469 28.775,32.183 27.182,32.183 C27.182,32.183 17.902,32.183 17.902,32.183 C16.313,32.183 16.016,33.469 16.016,35.06 M17.548,42.128 C17.548,43.716 17.8440000000001,45.004 19.4349999999999,45.004 C19.4349999999999,45.004 24.721,45.004 24.721,45.004 C26.313,45.004 26.609,43.716 26.609,42.128 C26.609,40.538 26.313,39.251 24.721,39.251 C24.721,39.251 19.4349999999999,39.251 19.4349999999999,39.251 C17.8440000000001,39.251 17.548,40.538 17.548,42.128 M16.8150000000001,44.65 C16.491,44.033 16.347,43.255 16.347,42.128 C16.347,40.999 16.491,40.221 16.8150000000001,39.606 C16.926,39.391 17.08,39.164 17.2859999999999,38.957 C16.164,38.81 15.58,38.149 15.283,37.581 C14.9589999999999,36.965 14.8150000000001,36.187 14.8150000000001,35.06 C14.8150000000001,33.932 14.9589999999999,33.154 15.283,32.538 C15.371,32.369 15.485,32.193 15.63,32.023 C14.561,31.856 13.999,31.212 13.7089999999999,30.659 C13.385,30.041 13.24,29.264 13.24,28.136 C13.24,27.008 13.385,26.231 13.7089999999999,25.613 C13.994,25.071 14.542,24.44 15.575,24.259 C15.466,24.12 15.376,23.977 15.304,23.84 C14.981,23.223 14.837,22.446 14.837,21.317 C14.837,20.189 14.981,19.412 15.304,18.795 C15.641,18.153 16.343,17.388 17.78,17.388 C17.78,17.388 19.572,17.388 19.572,17.388 C19.756,16.055 23.453,13.204 23.453,7.374 C23.453,0.98500000000001 16.644,1.72300000000001 16.644,1.72300000000001 C16.644,1.72300000000001 16.644,5.68899999999999 16.644,5.68899999999999 C15.449,10.11 7.52099999999996,16.935 5.27599999999995,18.798 C2.61800000000005,20.152 0.96699999999998,22.799 0.96699999999998,26.062 C0.96699999999998,26.062 0.96699999999998,35.788 0.96699999999998,35.788 C0.96699999999998,40.822 5.05499999999995,44.902 10.097,44.902 C10.097,44.902 16.963,44.902 16.963,44.902 C16.908,44.817 16.857,44.732 16.8150000000001,44.65  "/>
</svg>
