<?xml version="1.0" encoding="utf-8"?>
<!DOCTYPE svg PUBLIC "-//W3C//DTD SVG 1.1//EN" "http://www.w3.org/Graphics/SVG/1.1/DTD/svg11.dtd">
<svg version="1.1" baseProfile="full"
 xmlns="http://www.w3.org/2000/svg"
 xmlns:xlink="http://www.w3.org/1999/xlink"
 xmlns:ev="http://www.w3.org/2001/xml-events" 
  height="39px" 
  width="43px" 
>
<path fill="rgb( 34, 60, 106 )"
 d="M41.876,32.735 C41.196,30.761 38.947,30.477 37.069,29.683 C35.004,28.81 32.716,27.799 30.657,26.951 C30.07,26.792 29.481,26.63 28.894,26.47 C28.192,25.986 27.506,24.38 27.13,23.579 C26.757,23.526 26.383,23.471 26.009,23.419 C26.067,22.182 26.83,22.116 27.13,21.17 C27.395,20.336 27.158,19.254 27.577,18.482 C27.868,17.946 28.527,17.942 28.854,17.483 C29.153,17.066 29.35,16.339 29.442,15.829 C29.611,14.895 29.76,13.618 29.318,12.693 C29.063,12.161 28.903,12.11 28.832,11.464 C28.747,10.682 29.063,8.131 29.075,7.579 C29.108,6.148 29.073,6.032 28.728,4.638 C28.728,4.638 28.307,3.376 27.65,2.994 C27.65,2.994 26.338,2.767 26.338,2.767 C26.338,2.767 25.528,2.015 25.528,2.015 C22.262,0 18.761,1.414 16.886,2.175 C14.184,3.054 12.476,5.707 13.668,11.372 C13.872,12.338 13.14,12.771 13.186,13.298 C13.292,14.454 13.314,17.23 14.402,17.914 C14.504,17.977 15.276,18.17 15.271,18.118 C15.378,19.242 15.485,20.367 15.592,21.49 C15.863,22.239 16.515,22.32 16.705,23.376 C16.705,23.376 15.871,23.579 15.871,23.579 C15.496,24.38 14.808,25.986 14.108,26.47 C13.519,26.63 12.931,26.792 12.344,26.951 C10.285,27.799 7.996,28.81 5.933,29.683 C4.054,30.477 1.805,30.761 1.125,32.735 C1.125,34.076 0.999,37.242 1.033,39 C1.033,39 19,39 19,39 C19,39 20.319,29.97 20.319,29.97 C20.319,29.97 19.222,27.651 19.222,27.651 C19.222,27.651 21.754,26.434 21.754,26.434 C21.754,26.434 23.886,27.626 23.886,27.626 C23.886,27.626 22.712,30.013 22.712,30.013 C22.712,30.013 24.789,39 24.789,39 C24.789,39 41.968,39 41.968,39 C42.002,37.242 41.876,34.076 41.876,32.735  "/>
</svg>
