<?xml version="1.0" encoding="utf-8"?>
<!DOCTYPE svg PUBLIC "-//W3C//DTD SVG 1.1//EN" "http://www.w3.org/Graphics/SVG/1.1/DTD/svg11.dtd">
<svg version="1.1" baseProfile="full"
 xmlns="http://www.w3.org/2000/svg"
 xmlns:xlink="http://www.w3.org/1999/xlink"
 xmlns:ev="http://www.w3.org/2001/xml-events" 
  height="33px" 
  width="33px" 
>
<path fill="rgb( 34, 60, 106 )"
 d="M4.329,0 C4.329,0 28.672,0 28.672,0 C29.863,0 30.945,0.502 31.729,1.313 C32.513,2.123 33,3.241 33,4.473 C33,4.473 33,21.294 33,21.294 C33,22.526 32.513,23.645 31.729,24.455 C31.729,24.455 31.724,24.455 31.724,24.455 C30.94,25.263 29.86,25.768 28.672,25.768 C28.672,25.768 24.333,25.768 24.333,25.768 C24.333,25.768 20.292,33 20.292,33 C20.292,33 17.717,32.288 17.717,32.288 C17.717,32.288 17.717,25.768 17.717,25.768 C17.717,25.768 4.329,25.768 4.329,25.768 C3.141,25.768 2.06,25.263 1.276,24.455 C1.276,24.455 1.27,24.451 1.27,24.451 C0.487,23.638 0,22.522 0,21.294 C0,21.294 0,4.473 0,4.473 C0,3.246 0.487,2.128 1.27,1.319 C1.27,1.319 1.27,1.313 1.27,1.313 C2.055,0.502 3.137,0 4.329,0 C4.329,0 4.329,0 4.329,0 ZM7.334,16.541 C7.334,16.541 7.334,18.431 7.334,18.431 C7.334,18.431 26.112,18.431 26.112,18.431 C26.112,18.431 26.112,16.541 26.112,16.541 C26.112,16.541 7.334,16.541 7.334,16.541 C7.334,16.541 7.334,16.541 7.334,16.541 ZM7.334,11.677 C7.334,11.677 7.334,13.569 7.334,13.569 C7.334,13.569 26.112,13.569 26.112,13.569 C26.112,13.569 26.112,11.677 26.112,11.677 C26.112,11.677 7.334,11.677 7.334,11.677 C7.334,11.677 7.334,11.677 7.334,11.677 ZM7.334,7.241 C7.334,7.241 7.334,9.13 7.334,9.13 C7.334,9.13 26.112,9.13 26.112,9.13 C26.112,9.13 26.112,7.241 26.112,7.241 C26.112,7.241 7.334,7.241 7.334,7.241 C7.334,7.241 7.334,7.241 7.334,7.241 ZM28.672,2.855 C28.672,2.855 4.329,2.855 4.329,2.855 C3.9,2.855 3.509,3.036 3.225,3.331 C3.225,3.331 3.221,3.329 3.221,3.329 C2.939,3.622 2.764,4.028 2.764,4.473 C2.764,4.473 2.764,21.294 2.764,21.294 C2.764,21.74 2.939,22.146 3.221,22.439 C3.506,22.73 3.898,22.913 4.329,22.913 C4.329,22.913 19.098,22.913 19.098,22.913 C19.098,22.913 20.481,22.913 20.481,22.913 C20.481,22.913 20.481,24.34 20.481,24.34 C20.481,24.34 20.481,26.967 20.481,26.967 C20.481,26.967 22.347,23.625 22.347,23.625 C22.347,23.625 22.746,22.913 22.746,22.913 C22.746,22.913 23.54,22.913 23.54,22.913 C23.54,22.913 28.672,22.913 28.672,22.913 C29.103,22.913 29.494,22.73 29.778,22.439 C29.778,22.439 29.776,22.437 29.776,22.437 C30.061,22.142 30.237,21.738 30.237,21.294 C30.237,21.294 30.237,4.473 30.237,4.473 C30.237,4.028 30.061,3.626 29.776,3.331 C29.492,3.036 29.101,2.855 28.672,2.855 Z "/>
</svg>
