<?xml version="1.0" encoding="utf-8"?>
<!DOCTYPE svg PUBLIC "-//W3C//DTD SVG 1.1//EN" "http://www.w3.org/Graphics/SVG/1.1/DTD/svg11.dtd">
<svg version="1.1" baseProfile="full"
 xmlns="http://www.w3.org/2000/svg"
 xmlns:xlink="http://www.w3.org/1999/xlink"
 xmlns:ev="http://www.w3.org/2001/xml-events" 
  height="37px" 
  width="53px" 
>
<path fill="rgb( 255, 255, 255 )"
 d="M17.342,13.49 C17.283,12.836 17.553,12.342 17.716,12.045 C17.746,11.987 17.788,11.913 17.807,11.868 C17.669,11.209 17.571,10.581 17.507,9.977 C17.507,9.977 16.67,9.832 16.67,9.832 C16.67,9.832 16.137,9.338 16.137,9.338 C13.989,8.016 11.686,8.944 10.453,9.443 C8.675,10.021 7.553,12.534 8.336,16.252 C8.471,16.887 7.989,17.171 8.021,17.518 C8.089,18.276 8.103,20.098 8.82,20.547 C8.886,20.588 9.393,20.715 9.391,20.681 C9.391,20.681 9.602,22.894 9.602,22.894 C9.78,23.385 10.21,23.44 10.334,24.131 C10.334,24.131 9.784,24.265 9.784,24.265 C9.538,24.79 9.087,25.845 8.624,26.163 C8.238,26.268 7.852,26.373 7.466,26.478 C6.111,27.035 4.607,27.699 3.249,28.271 C2.013,28.793 0.534,28.979 0.087,30.274 C0.087,31.154 0.003,33.233 0.026,34.385 C0.026,34.385 6.143,34.385 6.143,34.385 C6.151,34.009 6.159,33.632 6.168,33.268 C6.187,32.47 6.205,31.716 6.205,31.248 C6.205,31.248 6.205,30.996 6.205,30.996 C6.205,30.996 6.288,30.757 6.288,30.757 C7.015,28.651 8.929,27.987 10.468,27.455 C10.856,27.321 11.224,27.194 11.564,27.051 C12.311,26.735 13.089,26.4 13.875,26.062 C15.031,25.565 16.223,25.054 17.343,24.592 C17.287,24.471 17.235,24.358 17.191,24.265 C16.944,24.231 16.7,24.194 16.453,24.159 C16.491,23.348 16.994,23.304 17.191,22.685 C17.365,22.136 17.209,21.426 17.485,20.92 C17.677,20.568 18.109,20.565 18.325,20.265 C18.521,19.99 18.651,19.512 18.711,19.178 C18.745,18.998 18.775,18.799 18.796,18.591 C17.622,17.509 17.475,15.407 17.378,13.971 C17.365,13.79 17.355,13.628 17.342,13.49 M52.913,30.274 C52.466,28.979 50.987,28.793 49.751,28.271 C48.394,27.699 46.889,27.035 45.534,26.478 C45.148,26.373 44.761,26.268 44.375,26.163 C43.914,25.845 43.462,24.79 43.215,24.265 C43.215,24.265 42.477,24.159 42.477,24.159 C42.515,23.348 43.018,23.304 43.215,22.685 C43.389,22.136 43.234,21.426 43.509,20.92 C43.7,20.568 44.133,20.565 44.349,20.265 C44.546,19.99 44.675,19.512 44.736,19.178 C44.847,18.566 44.944,17.727 44.653,17.119 C44.487,16.771 44.381,16.737 44.335,16.314 C44.278,15.801 44.486,14.126 44.495,13.764 C44.515,12.824 44.492,11.975 44.265,11.061 C44.265,11.061 43.988,10.231 43.557,9.981 C43.557,9.981 42.693,9.832 42.693,9.832 C42.693,9.832 42.161,9.338 42.161,9.338 C40.012,8.016 37.71,8.944 36.477,9.443 C35.791,9.665 35.204,10.181 34.785,10.939 C34.771,11.19 34.766,11.396 34.778,11.5 C34.784,11.555 34.79,11.588 34.792,11.603 C34.807,11.631 34.824,11.657 34.841,11.688 C34.904,11.794 34.99,11.942 35.086,12.144 C35.691,13.408 35.513,14.922 35.325,15.952 C35.233,16.46 35.006,17.413 34.525,18.084 C34.4,18.259 34.26,18.4 34.121,18.518 C34.198,19.32 34.361,20.245 34.843,20.547 C34.91,20.588 35.417,20.715 35.415,20.681 C35.485,21.419 35.555,22.156 35.625,22.894 C35.804,23.385 36.234,23.44 36.358,24.131 C36.358,24.131 35.808,24.265 35.808,24.265 C35.765,24.356 35.716,24.465 35.661,24.582 C36.787,25.046 37.987,25.56 39.149,26.061 C39.936,26.399 40.717,26.735 41.464,27.051 C41.804,27.194 42.172,27.321 42.561,27.455 C44.1,27.987 46.014,28.651 46.74,30.757 C46.74,30.757 46.823,30.996 46.823,30.996 C46.823,30.996 46.823,31.248 46.823,31.248 C46.823,31.716 46.841,32.47 46.861,33.268 C46.868,33.632 46.878,34.009 46.886,34.385 C46.886,34.385 52.974,34.385 52.974,34.385 C52.996,33.233 52.913,31.154 52.913,30.274 M33.183,4.272 C33.502,5.555 33.534,6.748 33.504,8.065 C33.492,8.574 33.2,10.923 33.28,11.643 C33.344,12.237 33.493,12.285 33.728,12.775 C34.135,13.627 33.998,14.802 33.842,15.662 C33.757,16.132 33.576,16.801 33.3,17.184 C32.997,17.608 32.39,17.611 32.122,18.105 C31.735,18.815 31.953,19.812 31.709,20.58 C31.432,21.45 30.727,21.511 30.674,22.65 C31.02,22.699 31.364,22.749 31.709,22.798 C32.055,23.534 32.689,25.015 33.337,25.459 C33.878,25.608 34.42,25.756 34.963,25.904 C36.864,26.683 38.973,27.615 40.878,28.418 C42.613,29.15 44.688,29.411 45.315,31.228 C45.315,32.463 45.432,35.379 45.4,36.996 C45.4,36.996 7.628,36.996 7.628,36.996 C7.597,35.379 7.712,32.463 7.712,31.228 C8.339,29.411 10.415,29.15 12.149,28.418 C14.054,27.615 16.165,26.683 18.065,25.904 C18.607,25.756 19.149,25.608 19.691,25.459 C20.34,25.015 20.973,23.534 21.318,22.798 C21.318,22.798 22.09,22.61 22.09,22.61 C21.914,21.638 21.313,21.564 21.061,20.875 C20.964,19.841 20.864,18.805 20.766,17.769 C20.771,17.818 20.058,17.64 19.965,17.582 C18.96,16.951 18.94,14.396 18.843,13.333 C18.799,12.847 19.474,12.448 19.286,11.557 C18.186,6.342 19.763,2.814 22.256,2.004 C23.986,1.303 27.217,0.003 30.231,1.857 C30.231,1.857 30.978,2.55 30.978,2.55 C30.978,2.55 32.188,2.758 32.188,2.758 C32.796,3.109 33.183,4.272 33.183,4.272  "/>
</svg>
