<?xml version="1.0" encoding="utf-8"?>
<!DOCTYPE svg PUBLIC "-//W3C//DTD SVG 1.1//EN" "http://www.w3.org/Graphics/SVG/1.1/DTD/svg11.dtd">
<svg version="1.1" baseProfile="full"
 xmlns="http://www.w3.org/2000/svg"
 xmlns:xlink="http://www.w3.org/1999/xlink"
 xmlns:ev="http://www.w3.org/2001/xml-events" 
  height="32px" 
  width="32px" 
>
<path fill="rgb( 255, 255, 255 )"
 d="M32,19 C32,19 19,19 19,19 C19,19 19,32 19,32 C19,32 14,32 14,32 C14,32 14,19 14,19 C14,19 0,19 0,19 C0,19 0,14 0,14 C0,14 14,14 14,14 C14,14 14,0 14,0 C14,0 19,0 19,0 C19,0 19,14 19,14 C19,14 32,14 32,14 C32,14 32,19 32,19 Z "/>
</svg>
