<?xml version="1.0" encoding="utf-8"?>
<!DOCTYPE svg PUBLIC "-//W3C//DTD SVG 1.1//EN" "http://www.w3.org/Graphics/SVG/1.1/DTD/svg11.dtd">
<svg version="1.1" baseProfile="full"
 xmlns="http://www.w3.org/2000/svg"
 xmlns:xlink="http://www.w3.org/1999/xlink"
 xmlns:ev="http://www.w3.org/2001/xml-events" 
  height="46px" 
  width="31px" 
>
<path fill="rgb( 34, 60, 106 )"
 d="M16.062,21.316 C16.062,22.906 16.358,24.193 17.95,24.193 C17.95,24.193 26.741,24.193 26.741,24.193 C28.332,24.193 28.628,22.906 28.628,21.316 C28.628,19.728 28.332,18.44 26.741,18.44 C26.741,18.44 17.95,18.44 17.95,18.44 C16.358,18.44 16.062,19.728 16.062,21.316 M14.466,28.135 C14.466,29.724 14.763,31.013 16.353,31.013 C16.353,31.013 28.117,31.013 28.117,31.013 C29.709,31.013 30.006,29.724 30.006,28.135 C30.006,26.547 29.709,25.259 28.117,25.259 C28.117,25.259 16.353,25.259 16.353,25.259 C14.763,25.259 14.466,26.547 14.466,28.135 M16.04,35.059 C16.04,36.647 16.337,37.934 17.927,37.934 C17.927,37.934 27.206,37.934 27.206,37.934 C28.799,37.934 29.096,36.647 29.096,35.059 C29.096,33.469 28.799,32.182 27.206,32.182 C27.206,32.182 17.927,32.182 17.927,32.182 C16.337,32.182 16.04,33.469 16.04,35.059 M17.572,42.127 C17.572,43.716 17.868,45.003 19.459,45.003 C19.459,45.003 24.745,45.003 24.745,45.003 C26.337,45.003 26.633,43.716 26.633,42.127 C26.633,40.537 26.337,39.25 24.745,39.25 C24.745,39.25 19.459,39.25 19.459,39.25 C17.868,39.25 17.572,40.537 17.572,42.127 M16.839,44.649 C16.515,44.032 16.371,43.254 16.371,42.127 C16.371,40.999 16.515,40.22 16.839,39.605 C16.95,39.39 17.104,39.164 17.31,38.956 C16.188,38.81 15.604,38.148 15.307,37.58 C14.983,36.964 14.839,36.187 14.839,35.059 C14.839,33.931 14.983,33.153 15.307,32.537 C15.395,32.368 15.509,32.192 15.654,32.023 C14.585,31.855 14.023,31.211 13.733,30.658 C13.409,30.041 13.265,29.263 13.265,28.135 C13.265,27.007 13.409,26.23 13.733,25.613 C14.018,25.07 14.566,24.439 15.599,24.259 C15.49,24.119 15.4,23.976 15.329,23.839 C15.005,23.223 14.861,22.445 14.861,21.316 C14.861,20.188 15.005,19.411 15.329,18.795 C15.665,18.152 16.367,17.387 17.804,17.387 C17.804,17.387 19.596,17.387 19.596,17.387 C19.78,16.054 23.477,13.203 23.477,7.374 C23.477,0.98399999999999 16.668,1.72199999999999 16.668,1.72199999999999 C16.668,1.72199999999999 16.668,5.68899999999999 16.668,5.68899999999999 C15.474,10.109 7.545,16.935 5.301,18.798 C2.642,20.152 0.991,22.798 0.991,26.062 C0.991,26.062 0.991,35.787 0.991,35.787 C0.991,40.822 5.07899999999999,44.901 10.121,44.901 C10.121,44.901 16.988,44.901 16.988,44.901 C16.932,44.816 16.881,44.731 16.839,44.649  "/>
</svg>
