<?xml version="1.0" encoding="utf-8"?>
<!DOCTYPE svg PUBLIC "-//W3C//DTD SVG 1.1//EN" "http://www.w3.org/Graphics/SVG/1.1/DTD/svg11.dtd">
<svg version="1.1" baseProfile="full"
 xmlns="http://www.w3.org/2000/svg"
 xmlns:xlink="http://www.w3.org/1999/xlink"
 xmlns:ev="http://www.w3.org/2001/xml-events" 
  height="66px" 
  width="45px" 
>
<path fill="rgb( 0, 93, 156 )"
 d="M22.757,2.846 C20.862,0.955 18.57,0.002 15.896,0.002 C13.223,0.002 10.932,0.955 9.035,2.846 C7.142,4.754 6.197,7.044 6.197,9.723 C6.197,12.411 7.142,14.701 9.035,16.6 C10.506,18.073 12.209,18.975 14.155,19.305 C14.06,18.497 13.934,17.69 13.733,16.894 C12.576,16.553 11.539,15.926 10.624,15.009 C9.17099999999999,13.553 8.44499999999999,11.788 8.44499999999999,9.723 C8.44499999999999,7.667 9.17099999999999,5.902 10.624,4.446 C10.624,4.446 10.631,4.446 10.631,4.446 C12.084,2.991 13.837,2.255 15.896,2.255 C17.956,2.255 19.709,2.991 21.161,4.446 C22.62,5.902 23.347,7.65900000000001 23.347,9.723 C23.347,11.785 22.624,13.548 21.167,15.003 C21.437,15.797 21.676,16.59 21.885,17.383 C22.184,17.145 22.475,16.889 22.757,16.608 C22.757,16.608 22.757,16.6 22.757,16.6 C24.652,14.701 25.595,12.411 25.595,9.723 C25.595,7.044 24.652,4.754 22.757,2.846 M32.339,29.144 C32.339,29.144 32.289,29.108 32.289,29.108 C32.289,29.108 30.759,29.044 30.759,29.044 C30.759,29.044 29.789,27.427 29.789,27.427 C29.648,27.186 29.456,26.979 29.232,26.787 C27.919,25.631 26.384,25.029 24.618,24.979 C24.618,24.979 23.063,25.291 23.063,25.291 C23.063,25.291 23.018,25.157 23.018,25.157 C23.018,25.157 22.967,25.122 22.967,25.122 C22.967,25.122 18.102,6.625 18.102,6.625 C17.428,4.245 16.259,4.238 14.998,4.462 C14.998,4.462 12.431,4.82899999999999 12.917,7.59399999999999 C12.917,7.59399999999999 17.747,33.55 17.747,33.55 C17.791,33.821 17.825,34.083 17.819,34.351 C17.83,35.566 17.433,36.624 16.641,37.557 C16.44,37.839 16.086,38.065 15.864,38.094 C14.366,38.334 13.049,37.984 11.893,37.044 C10.425,35.937 9.39099999999999,33.612 8.38499999999999,32.119 C7.81999999999999,31.279 7.34399999999999,30.217 6.65199999999999,29.454 C5.392,28.066 2.64099999999999,27.038 1.05500000000001,28.338 C0.53800000000001,28.763 0.00299999999999,29.896 0.46899999999999,30.513 C1.148,31.404 2.006,32.412 2.46600000000001,33.339 C2.86199999999999,34.141 3.17699999999999,35.014 3.476,35.929 C3.67699999999999,36.549 3.82599999999999,38 4.26300000000001,38.394 C4.73699999999999,38.819 5.09899999999999,39.814 5.44399999999999,40.311 C6.273,41.501 7.334,42.929 7.857,44.296 C9.33500000000001,46.541 10.01,49.35 11.764,51.573 C13.797,54.151 15.909,56.524 18.943,58.048 C20.068,58.687 20.93,59.543 21.54,60.639 C21.54,60.639 22.582,65.991 22.582,65.991 C26.526,65.258 42.349,62.573 44.042,62.228 C44.042,62.228 42.997,57.638 42.997,57.638 C42.997,57.638 42.947,57.581 42.947,57.581 C43.296,56.422 43.615,55.241 43.922,54.059 C44.159,53.119 44.3,52.173 44.334,51.217 C44.457,48.689 44.56,46.148 44.673,43.608 C44.682,43.157 44.725,42.697 44.798,42.263 C44.997,40.804 44.166,36.822 41.081,36.658 C41.025,36.657 40.99,36.599 40.971,36.565 C40.182,34.951 39.172,33.46 37.944,32.139 C36.502,30.611 34.462,29.464 32.339,29.144  "/>
</svg>
