<?xml version="1.0" encoding="utf-8"?>
<!DOCTYPE svg PUBLIC "-//W3C//DTD SVG 1.1//EN" "http://www.w3.org/Graphics/SVG/1.1/DTD/svg11.dtd">
<svg version="1.1" baseProfile="full"
 xmlns="http://www.w3.org/2000/svg"
 xmlns:xlink="http://www.w3.org/1999/xlink"
 xmlns:ev="http://www.w3.org/2001/xml-events" 
  height="54px" 
  width="54px" 
>
<path fill="rgb( 102, 102, 102 )"
 d="M52,54 C52,54 2,54 2,54 C2,54 0,54 0,54 C0,54 0,52 0,52 C0,52 0,2 0,2 C0,2 0,0 0,0 C0,0 2,0 2,0 C2,0 52,0 52,0 C52,0 54,0 54,0 C54,0 54,2 54,2 C54,2 54,52 54,52 C54,52 54,54 54,54 C54,54 52,54 52,54 ZM50.578,52 C50.578,52 26.996,28.418 26.996,28.418 C26.996,28.418 3.414,52 3.414,52 C3.414,52 50.578,52 50.578,52 ZM25.582,27.004 C25.582,27.004 2,3.422 2,3.422 C2,3.422 2,50.586 2,50.586 C2,50.586 25.582,27.004 25.582,27.004 ZM3.422,2 C3.422,2 27.004,25.582 27.004,25.582 C27.004,25.582 50.586,2 50.586,2 C50.586,2 3.422,2 3.422,2 ZM28.418,26.996 C28.418,26.996 52,50.578 52,50.578 C52,50.578 52,3.414 52,3.414 C52,3.414 28.418,26.996 28.418,26.996 Z "/>
</svg>
