<?xml version="1.0" encoding="utf-8"?>
<!DOCTYPE svg PUBLIC "-//W3C//DTD SVG 1.1//EN" "http://www.w3.org/Graphics/SVG/1.1/DTD/svg11.dtd">
<svg version="1.1" baseProfile="full"
 xmlns="http://www.w3.org/2000/svg"
 xmlns:xlink="http://www.w3.org/1999/xlink"
 xmlns:ev="http://www.w3.org/2001/xml-events" 
  height="48px" 
  width="48px" 
>
<path fill="rgb( 102, 102, 102 )"
 d="M28.914,33.268 C28.914,33.268 20.631,24.987 20.631,24.987 C20.631,24.987 39.721,5.89500000000001 39.721,5.89500000000001 C35.508,2.232 30.019,0 24,0 C10.745,0 0,10.743 0,24 C0,37.253 10.745,48 24,48 C37.254,48 48,37.253 48,24 C48,21.072 47.451,18.281 46.491,15.687 C46.491,15.687 28.914,33.268 28.914,33.268 ZM16.043,37.81 C16.043,37.81 19.135,26.482 19.135,26.482 C19.135,26.482 27.415,34.763 27.415,34.763 C27.415,34.763 16.043,37.81 16.043,37.81 Z "/>
</svg>
