<?xml version="1.0" encoding="utf-8"?>
<!DOCTYPE svg PUBLIC "-//W3C//DTD SVG 1.1//EN" "http://www.w3.org/Graphics/SVG/1.1/DTD/svg11.dtd">
<svg version="1.1" baseProfile="full"
 xmlns="http://www.w3.org/2000/svg"
 xmlns:xlink="http://www.w3.org/1999/xlink"
 xmlns:ev="http://www.w3.org/2001/xml-events" 
  height="20px" 
  width="37px" 
>
<path fill="rgb( 34, 60, 106 )"
 d="M17.633,4.295 C17.633,4.295 18.173,3.449 18.173,3.449 C18.173,3.449 32.646,9.59 32.646,9.59 C32.646,9.59 32.675,10.211 32.675,10.211 C32.675,10.211 17.633,4.295 17.633,4.295 C17.633,4.295 17.633,4.295 17.633,4.295 ZM0,4.636 C0.856,8.937 6.153,12.549 5.566,16.515 C5.191,18.499 3.455,16.919 3.333,20 C14.031,20 25.264,20 35.961,20 C35.961,20 36.003,17.951 36.003,17.951 C36.003,17.951 37,14.418 37,14.418 C33.483,13.482 29.795,12.089 26.398,10.753 C17.697,7.334 8.972,3.591 0,4.636 C0,4.636 0,4.636 0,4.636 ZM8.521,8.64 C9.343,8.64 10.009,9.301 10.009,10.117 C10.009,10.933 9.343,11.595 8.521,11.595 C7.699,11.595 7.032,10.933 7.032,10.117 C7.032,9.301 7.699,8.64 8.521,8.64 C8.521,8.64 8.521,8.64 8.521,8.64 ZM21.096,1.905 C21.096,1.905 30.17,6.095 30.17,6.095 C30.17,6.095 30.152,5.722 30.152,5.722 C30.152,5.722 21.42,1.415 21.42,1.415 C21.42,1.415 21.096,1.905 21.096,1.905 C21.096,1.905 21.096,1.905 21.096,1.905 ZM13.668,0 C13.668,0 12.882,1.482 12.882,1.482 C12.882,1.482 9.809,1.482 9.809,1.482 C9.809,1.482 8.957,3.089 8.957,3.089 C8.957,3.089 9.482,3.257 9.482,3.257 C9.482,3.257 10.342,2.384 10.342,2.384 C10.342,2.384 17.014,2.384 17.014,2.384 C17.014,2.384 15.186,5.272 15.186,5.272 C18.976,6.459 22.742,7.995 26.505,9.475 C28.801,10.377 31.229,11.306 33.648,12.101 C33.648,12.101 33.648,9.089 33.648,9.089 C33.648,9.089 30.801,7.742 30.801,7.742 C30.801,7.742 30.801,5.144 30.801,5.144 C30.801,5.144 21.445,0 21.445,0 C21.445,0 13.668,0 13.668,0 C13.668,0 13.668,0 13.668,0 ZM15.863,2.928 C15.863,2.928 15.376,3.591 15.376,3.591 C15.376,3.591 13.999,3.591 13.999,3.591 C13.999,3.591 14.487,2.928 14.487,2.928 C14.487,2.928 15.863,2.928 15.863,2.928 C15.863,2.928 15.863,2.928 15.863,2.928 ZM13.763,2.928 C13.763,2.928 13.276,3.591 13.276,3.591 C13.276,3.591 11.899,3.591 11.899,3.591 C11.899,3.591 12.386,2.928 12.386,2.928 C12.386,2.928 13.763,2.928 13.763,2.928 C13.763,2.928 13.763,2.928 13.763,2.928 ZM15.097,4.14 C15.097,4.14 14.701,4.801 14.701,4.801 C14.701,4.801 13.324,4.801 13.324,4.801 C13.324,4.801 13.721,4.14 13.721,4.14 C13.721,4.14 15.097,4.14 15.097,4.14 C15.097,4.14 15.097,4.14 15.097,4.14 ZM17.6,1.151 C17.6,1.151 16.225,1.151 16.225,1.151 C16.225,1.151 15.981,1.482 15.981,1.482 C15.981,1.482 13.629,1.482 13.629,1.482 C13.629,1.482 14.203,0.9 14.203,0.9 C14.203,0.9 20.875,0.9 20.875,0.9 C20.875,0.9 19.832,2.545 19.832,2.545 C19.832,2.545 18.283,1.812 18.283,1.812 C18.283,1.812 19.213,1.812 19.213,1.812 C19.213,1.812 19.701,1.151 19.701,1.151 C19.701,1.151 18.325,1.151 18.325,1.151 C18.325,1.151 17.952,1.658 17.952,1.658 C17.952,1.658 17.585,1.482 17.585,1.482 C17.585,1.482 17.357,1.482 17.357,1.482 C17.357,1.482 17.6,1.151 17.6,1.151 Z "/>
</svg>
