<?xml version="1.0" encoding="utf-8"?>
<!DOCTYPE svg PUBLIC "-//W3C//DTD SVG 1.1//EN" "http://www.w3.org/Graphics/SVG/1.1/DTD/svg11.dtd">
<svg version="1.1" baseProfile="full"
 xmlns="http://www.w3.org/2000/svg"
 xmlns:xlink="http://www.w3.org/1999/xlink"
 xmlns:ev="http://www.w3.org/2001/xml-events" 
  height="48px" 
  width="48px" 
>
<path fill="rgb( 102, 102, 102 )"
 d="M24,0 C10.745,0 0,10.743 0,24 C0,37.253 10.745,48 24,48 C37.253,48 48,37.253 48,24 C48,10.743 37.253,0 24,0 M39.111,25.915 C39.111,25.915 32.065,25.915 32.065,25.915 C32.065,25.915 32.065,37.759 32.065,37.759 C32.065,37.759 12.829,37.759 12.829,37.759 C12.829,37.759 10.187,35.116 10.187,35.116 C10.187,35.116 10.187,15.88 10.187,15.88 C10.187,15.88 22.031,15.88 22.031,15.88 C22.031,15.88 22.031,8.813 22.031,8.813 C22.031,8.813 32.065,8.813 32.065,8.813 C32.065,8.813 32.065,15.88 32.065,15.88 C32.065,15.88 39.111,15.88 39.111,15.88 C39.111,15.88 39.111,25.915 39.111,25.915 ZM30.026,10.844 C30.026,10.844 24.106,10.844 24.106,10.844 C24.106,10.844 24.106,17.831 24.106,17.831 C24.106,17.831 17.119,17.831 17.119,17.831 C17.119,17.831 17.119,23.75 17.119,23.75 C17.119,23.75 24.106,23.75 24.106,23.75 C24.106,23.75 24.106,30.737 24.106,30.737 C24.106,30.737 30.026,30.737 30.026,30.737 C30.026,30.737 30.026,23.75 30.026,23.75 C30.026,23.75 37.014,23.75 37.014,23.75 C37.014,23.75 37.014,17.831 37.014,17.831 C37.014,17.831 30.026,17.831 30.026,17.831 C30.026,17.831 30.026,10.844 30.026,10.844 Z "/>
</svg>
