<?xml version="1.0" encoding="utf-8"?>
<!DOCTYPE svg PUBLIC "-//W3C//DTD SVG 1.1//EN" "http://www.w3.org/Graphics/SVG/1.1/DTD/svg11.dtd">
<svg version="1.1" baseProfile="full"
 xmlns="http://www.w3.org/2000/svg"
 xmlns:xlink="http://www.w3.org/1999/xlink"
 xmlns:ev="http://www.w3.org/2001/xml-events" 
  height="32px" 
  width="41px" 
>
<path fill="rgb( 34, 60, 106 )"
 d="M6.193,0.766 C7.999,0 9.386,0.486 10.505,1.77 C10.015,8.254 8.937,14.206 7.197,19.562 C5.32,19.125 3.442,18.688 1.563,18.25 C2.261,11.881 3.829,6.05 6.193,0.766 C6.193,0.766 6.193,0.766 6.193,0.766 ZM7.155,26.163 C7.155,26.163 6.26,29.067 6.26,29.067 C27.037,29.067 29.279,29.067 39.586,29.067 C39.586,29.067 41,29.067 41,29.067 C41,29.067 41,27.614 41,27.614 C41,27.614 41,10.489 41,10.489 C41,10.489 41,9.878 41,9.878 C41,9.878 40.564,9.445 40.564,9.445 C40.564,9.445 35.317,4.242 35.317,4.242 C35.317,4.242 34.904,3.834 34.904,3.834 C34.904,3.834 34.339,3.834 34.339,3.834 C34.339,3.834 12.255,3.834 12.255,3.834 C12.171,4.816 12.076,5.784 11.963,6.738 C11.963,6.738 32.934,6.738 32.934,6.738 C32.934,6.738 32.53,11.248 32.53,11.248 C32.53,11.248 32.456,12.066 32.456,12.066 C32.456,12.066 33.256,12.036 33.256,12.036 C33.256,12.036 38.171,11.847 38.171,11.847 C38.171,11.847 38.171,26.163 38.171,26.163 C30.865,26.163 22.378,26.163 7.155,26.163 C7.155,26.163 7.155,26.163 7.155,26.163 ZM37.49,10.426 C37.49,10.426 34.007,10.559 34.007,10.559 C34.007,10.559 34.302,7.265 34.302,7.265 C34.302,7.265 37.49,10.426 37.49,10.426 C37.49,10.426 37.49,10.426 37.49,10.426 ZM12.412,17.264 C12.412,17.264 28.969,17.264 28.969,17.264 C28.969,17.264 28.969,18.369 28.969,18.369 C28.969,18.369 12.412,18.369 12.412,18.369 C12.412,18.369 12.412,17.264 12.412,17.264 C12.412,17.264 12.412,17.264 12.412,17.264 ZM12.412,13.134 C12.412,13.134 27.757,13.134 27.757,13.134 C27.757,13.134 27.757,14.239 27.757,14.239 C27.757,14.239 12.412,14.239 12.412,14.239 C12.412,14.239 12.412,13.134 12.412,13.134 C12.412,13.134 12.412,13.134 12.412,13.134 ZM12.412,8.9 C12.412,8.9 27.757,8.9 27.757,8.9 C27.757,8.9 27.757,10.005 27.757,10.005 C27.757,10.005 12.412,10.005 12.412,10.005 C12.412,10.005 12.412,8.9 12.412,8.9 C12.412,8.9 12.412,8.9 12.412,8.9 ZM1.186,26.873 C1.186,26.873 3.538,27.465 3.538,27.465 C3.538,27.465 3.501,29.966 3.501,29.966 C3.501,29.966 1.793,32 1.793,32 C1.419,31.913 1.045,31.826 0.672,31.739 C0.672,31.739 0,29.075 0,29.075 C0,29.075 1.186,26.873 1.186,26.873 C1.186,26.873 1.186,26.873 1.186,26.873 ZM1.528,19.448 C1.239,21.678 0.951,23.91 0.662,26.14 C1.949,26.441 3.236,26.74 4.523,27.039 C5.233,24.906 5.942,22.774 6.653,20.64 C4.944,20.243 3.237,19.845 1.528,19.448 Z "/>
</svg>
