<?xml version="1.0" encoding="utf-8"?>
<!DOCTYPE svg PUBLIC "-//W3C//DTD SVG 1.1//EN" "http://www.w3.org/Graphics/SVG/1.1/DTD/svg11.dtd">
<svg version="1.1" baseProfile="full"
 xmlns="http://www.w3.org/2000/svg"
 xmlns:xlink="http://www.w3.org/1999/xlink"
 xmlns:ev="http://www.w3.org/2001/xml-events" 
  height="47px" 
  width="38px" 
>
<path fill="rgb( 34, 60, 106 )"
 d="M8.567,3.91 C8.567,3.91 11.552,3.91 11.552,3.91 C11.552,3.91 11.552,0 11.552,0 C11.552,0 26.474,0 26.474,0 C26.474,0 26.474,3.91 26.474,3.91 C26.474,3.91 29.724,3.91 29.724,3.91 C29.724,3.91 29.724,6.882 29.724,6.882 C29.724,6.882 36.061,6.882 36.061,6.882 C36.061,6.882 38,6.882 38,6.882 C38,6.882 38,8.771 38,8.771 C38,8.771 38,45.112 38,45.112 C38,45.112 38,47 38,47 C38,47 36.061,47 36.061,47 C36.061,47 1.939,47 1.939,47 C1.939,47 0,47 0,47 C0,47 0,45.112 0,45.112 C0,45.112 0,8.771 0,8.771 C0,8.771 0,6.882 0,6.882 C0,6.882 1.939,6.882 1.939,6.882 C1.939,6.882 5.093,6.882 5.093,6.882 C5.093,6.882 5.093,10.662 5.093,10.662 C5.093,10.662 3.878,10.662 3.878,10.662 C3.878,10.662 3.878,43.221 3.878,43.221 C3.878,43.221 34.122,43.221 34.122,43.221 C34.122,43.221 34.122,10.662 34.122,10.662 C34.122,10.662 29.724,10.662 29.724,10.662 C29.724,10.662 29.724,12.273 29.724,12.273 C29.724,12.273 8.567,12.273 8.567,12.273 C8.567,12.273 8.567,3.91 8.567,3.91 C8.567,3.91 8.567,3.91 8.567,3.91 ZM13.228,27.374 C13.228,27.374 13.228,25.748 13.228,25.748 C13.228,25.748 7.856,25.748 7.856,25.748 C7.856,25.748 7.856,27.374 7.856,27.374 C7.856,27.374 13.228,27.374 13.228,27.374 C13.228,27.374 13.228,27.374 13.228,27.374 ZM23.366,27.374 C23.366,27.374 23.366,25.748 23.366,25.748 C23.366,25.748 17.768,25.748 17.768,25.748 C17.768,25.748 17.768,27.374 17.768,27.374 C17.768,27.374 23.366,27.374 23.366,27.374 C23.366,27.374 23.366,27.374 23.366,27.374 ZM30.627,27.374 C30.627,27.374 30.627,25.748 30.627,25.748 C30.627,25.748 25.672,25.748 25.672,25.748 C25.672,25.748 25.672,27.374 25.672,27.374 C25.672,27.374 30.627,27.374 30.627,27.374 C30.627,27.374 30.627,27.374 30.627,27.374 ZM16.066,31.656 C16.066,31.656 16.066,30.034 16.066,30.034 C16.066,30.034 7.856,30.034 7.856,30.034 C7.856,30.034 7.856,31.656 7.856,31.656 C7.856,31.656 16.066,31.656 16.066,31.656 C16.066,31.656 16.066,31.656 16.066,31.656 ZM19.508,31.656 C19.508,31.656 19.508,30.034 19.508,30.034 C19.508,30.034 17.768,30.034 17.768,30.034 C17.768,30.034 17.768,31.656 17.768,31.656 C17.768,31.656 19.508,31.656 19.508,31.656 C19.508,31.656 19.508,31.656 19.508,31.656 ZM30.627,31.656 C30.627,31.656 30.627,30.034 30.627,30.034 C30.627,30.034 20.717,30.034 20.717,30.034 C20.717,30.034 20.717,31.656 20.717,31.656 C20.717,31.656 30.627,31.656 30.627,31.656 C30.627,31.656 30.627,31.656 30.627,31.656 ZM25.256,21.197 C25.256,21.197 25.256,22.816 25.256,22.816 C25.256,22.816 30.627,22.816 30.627,22.816 C30.627,22.816 30.627,21.197 30.627,21.197 C30.627,21.197 25.256,21.197 25.256,21.197 C25.256,21.197 25.256,21.197 25.256,21.197 ZM15.119,21.197 C15.119,21.197 15.119,22.816 15.119,22.816 C15.119,22.816 20.717,22.816 20.717,22.816 C20.717,22.816 20.717,21.197 20.717,21.197 C20.717,21.197 15.119,21.197 15.119,21.197 C15.119,21.197 15.119,21.197 15.119,21.197 ZM7.856,21.197 C7.856,21.197 7.856,22.816 7.856,22.816 C7.856,22.816 12.812,22.816 12.812,22.816 C12.812,22.816 12.812,21.197 12.812,21.197 C12.812,21.197 7.856,21.197 7.856,21.197 C7.856,21.197 7.856,21.197 7.856,21.197 ZM22.419,16.911 C22.419,16.911 22.419,18.531 22.419,18.531 C22.419,18.531 30.627,18.531 30.627,18.531 C30.627,18.531 30.627,16.911 30.627,16.911 C30.627,16.911 22.419,16.911 22.419,16.911 C22.419,16.911 22.419,16.911 22.419,16.911 ZM18.977,16.911 C18.977,16.911 18.977,18.531 18.977,18.531 C18.977,18.531 20.717,18.531 20.717,18.531 C20.717,18.531 20.717,16.911 20.717,16.911 C20.717,16.911 18.977,16.911 18.977,16.911 C18.977,16.911 18.977,16.911 18.977,16.911 ZM7.856,16.911 C7.856,16.911 7.856,18.531 7.856,18.531 C7.856,18.531 17.768,18.531 17.768,18.531 C17.768,18.531 17.768,16.911 17.768,16.911 C17.768,16.911 7.856,16.911 7.856,16.911 Z "/>
</svg>
