<?xml version="1.0" encoding="utf-8"?>
<!DOCTYPE svg PUBLIC "-//W3C//DTD SVG 1.1//EN" "http://www.w3.org/Graphics/SVG/1.1/DTD/svg11.dtd">
<svg version="1.1" baseProfile="full"
 xmlns="http://www.w3.org/2000/svg"
 xmlns:xlink="http://www.w3.org/1999/xlink"
 xmlns:ev="http://www.w3.org/2001/xml-events" 
  height="123px" 
  width="123px" 
>
<path fill="rgb( 0, 0, 0 )"
 d="M61.5,123 C27.534,123 0,95.466 0,61.5 C0,27.534 27.534,0 61.5,0 C95.466,0 123,27.534 123,61.5 C123,95.466 95.466,123 61.5,123 ZM61.5,14.35 C35.46,14.35 14.35,35.46 14.35,61.5 C14.35,87.54 35.46,108.65 61.5,108.65 C87.54,108.65 108.65,87.54 108.65,61.5 C108.65,35.46 87.54,14.35 61.5,14.35 ZM61.5,90.314 C45.587,90.314 32.686,77.413 32.686,61.5 C32.686,45.587 45.587,32.686 61.5,32.686 C77.413,32.686 90.314,45.587 90.314,61.5 C90.314,77.413 77.413,90.314 61.5,90.314 Z "/>
</svg>
